<svg width="90" height="90" viewBox="0 0 90 90" fill="none" xmlns="http://www.w3.org/2000/svg">
<rect x="2.5" y="2.5" width="85" height="85" rx="42.5" fill="#EBF1FF"/>
<rect x="2.5" y="2.5" width="85" height="85" rx="42.5" stroke="#3770FF" stroke-width="5"/>
<g clip-path="url(#clip0_1_101)">
<path d="M60.8671 28.678L24.1201 39.3846L25.0934 42.7252L61.8404 32.0187L60.8671 28.678Z" fill="#3F3D56"/>
<path d="M28.5103 54.7292L23.0941 36.1397C23.0539 36.0019 23.0701 35.8537 23.1392 35.7279C23.2083 35.602 23.3245 35.5088 23.4623 35.4686L59.3185 25.0216C59.4563 24.9816 59.6043 24.9979 59.7302 25.0669C59.856 25.136 59.9492 25.2521 59.9895 25.3898L64.7879 41.8588L64.6394 41.9021L59.841 25.4331C59.8122 25.3348 59.7456 25.2519 59.6557 25.2026C59.5659 25.1532 59.4602 25.1416 59.3617 25.1701L23.5056 35.6171C23.4071 35.6458 23.3241 35.7124 23.2748 35.8023C23.2254 35.8922 23.2138 35.998 23.2425 36.0964L28.6587 54.6859L28.5103 54.7292Z" fill="#3F3D56"/>
<path d="M56.8519 41.9354C56.7431 41.9353 56.6372 41.9 56.5502 41.8347C56.4632 41.7694 56.3997 41.6777 56.3691 41.5733L55.4607 38.4554C55.4235 38.3274 55.4387 38.19 55.5028 38.0731C55.5669 37.9563 55.6747 37.8697 55.8026 37.8323L58.9205 36.9239C59.0485 36.8867 59.186 36.9019 59.3028 36.966C59.4196 37.0301 59.5062 37.1379 59.5436 37.2658L60.4521 40.3838C60.4892 40.5117 60.4741 40.6492 60.41 40.766C60.3459 40.8828 60.238 40.9695 60.1101 41.0069L56.9922 41.9153C56.9466 41.9286 56.8994 41.9354 56.8519 41.9354Z" fill="#3770FF"/>
<path d="M28.4266 36.1973C28.4173 36.1653 28.4062 36.1338 28.3934 36.103C28.3062 35.8914 28.1439 35.7195 27.9377 35.6203C27.7315 35.5211 27.4958 35.5016 27.2761 35.5656C27.0564 35.6295 26.8681 35.7724 26.7473 35.9668C26.6266 36.1612 26.5819 36.3934 26.6219 36.6187C26.6276 36.6516 26.635 36.6841 26.6444 36.7161C26.7008 36.9089 26.8182 37.0781 26.9789 37.1986C27.1396 37.319 27.335 37.3841 27.5359 37.3842C27.6236 37.3844 27.7108 37.3719 27.7949 37.3471C28.031 37.2781 28.2301 37.1183 28.3485 36.9028C28.4669 36.6872 28.495 36.4335 28.4266 36.1973ZM27.7516 37.1986C27.5548 37.2558 27.3433 37.2325 27.1635 37.1339C26.9838 37.0354 26.8505 36.8695 26.7928 36.6728C26.7838 36.6408 26.7765 36.6083 26.7711 36.5754C26.7421 36.3898 26.7818 36.1999 26.8826 36.0414C26.9834 35.8828 27.1385 35.7664 27.3189 35.7139C27.4993 35.6614 27.6927 35.6764 27.8628 35.7561C28.033 35.8358 28.1683 35.9748 28.2434 36.147C28.2574 36.1773 28.269 36.2086 28.2782 36.2406C28.3353 36.4375 28.3118 36.6489 28.2131 36.8286C28.1144 37.0082 27.9484 37.1413 27.7516 37.1986Z" fill="#3770FF"/>
<path d="M26.1508 36.8599C26.1014 36.69 26.1061 36.5089 26.1644 36.3417C26.2228 36.1746 26.3318 36.0299 26.4762 35.9276C26.3409 35.921 26.2059 35.9469 26.0825 36.003C25.9592 36.0592 25.851 36.144 25.7671 36.2503C25.6832 36.3567 25.6259 36.4817 25.6 36.6147C25.5741 36.7477 25.5803 36.885 25.6182 37.0151C25.6562 37.1452 25.7246 37.2644 25.8179 37.3627C25.9112 37.461 26.0266 37.5356 26.1546 37.5802C26.2825 37.6249 26.4193 37.6383 26.5535 37.6194C26.6877 37.6005 26.8154 37.5498 26.9261 37.4716C26.7493 37.4629 26.5796 37.3994 26.4406 37.2897C26.3017 37.1801 26.2004 37.0299 26.1508 36.8599Z" fill="#3770FF"/>
<path d="M50.1877 40.6921C50.1712 40.6329 50.1433 40.5776 50.1054 40.5292C50.0675 40.4808 50.0205 40.4404 49.967 40.4103C49.9135 40.3801 49.8546 40.3608 49.7936 40.3534C49.7326 40.346 49.6708 40.3508 49.6116 40.3673L44.4781 41.8032L43.9253 41.9578H47.3971L47.9499 41.8032L49.8637 41.2681C49.983 41.2346 50.0841 41.1551 50.1449 41.0471C50.2056 40.9391 50.221 40.8114 50.1877 40.6921Z" fill="#CCCCCC"/>
<path d="M46.5558 39.6196C46.5224 39.5003 46.4429 39.3991 46.3349 39.3383C46.2268 39.2776 46.0991 39.2622 45.9797 39.2956L38.2768 41.4498C38.1692 41.4803 38.076 41.5483 38.0141 41.6414C37.9521 41.7346 37.9255 41.8468 37.9389 41.9579H39.9331L40.4867 41.8032L46.2318 40.1964C46.3512 40.1628 46.4524 40.0832 46.5131 39.975C46.5739 39.8669 46.5892 39.7391 46.5558 39.6196Z" fill="#CCCCCC"/>
<path d="M66.3864 41.803H29.0393C28.8958 41.8032 28.7582 41.8603 28.6568 41.9617C28.5553 42.0632 28.4982 42.2008 28.498 42.3443V64.4587C28.4982 64.6022 28.5553 64.7398 28.6567 64.8413C28.7582 64.9427 28.8958 64.9998 29.0393 65H66.3864C66.5299 64.9998 66.6675 64.9427 66.769 64.8413C66.8704 64.7398 66.9275 64.6022 66.9277 64.4587V42.3443C66.9275 42.2008 66.8704 42.0632 66.769 41.9618C66.6675 41.8603 66.5299 41.8032 66.3864 41.803ZM66.773 64.4587C66.773 64.5612 66.7323 64.6596 66.6598 64.7321C66.5873 64.8045 66.4889 64.8453 66.3864 64.8453H29.0393C28.9368 64.8453 28.8385 64.8045 28.766 64.7321C28.6935 64.6596 28.6527 64.5612 28.6527 64.4587V42.3443C28.6527 42.2418 28.6935 42.1435 28.766 42.071C28.8385 41.9985 28.9368 41.9577 29.0393 41.9577H66.3864C66.4889 41.9577 66.5873 41.9985 66.6597 42.071C66.7322 42.1435 66.773 42.2418 66.773 42.3443V64.4587Z" fill="#3F3D56"/>
<path d="M32.6732 44.8188C32.4897 44.8188 32.3103 44.7644 32.1577 44.6625C32.0051 44.5605 31.8862 44.4156 31.816 44.246C31.7458 44.0765 31.7274 43.8899 31.7632 43.7099C31.799 43.5299 31.8874 43.3646 32.0171 43.2348C32.1469 43.1051 32.3122 43.0167 32.4922 42.9809C32.6722 42.9451 32.8588 42.9635 33.0283 43.0337C33.1979 43.1039 33.3428 43.2229 33.4447 43.3754C33.5467 43.528 33.6011 43.7074 33.6011 43.891C33.6008 44.137 33.503 44.3728 33.329 44.5467C33.1551 44.7207 32.9192 44.8185 32.6732 44.8188ZM32.6732 43.1177C32.5203 43.1177 32.3708 43.1631 32.2437 43.248C32.1165 43.333 32.0174 43.4538 31.9589 43.595C31.9003 43.7363 31.885 43.8918 31.9149 44.0418C31.9447 44.1918 32.0183 44.3296 32.1265 44.4377C32.2346 44.5458 32.3724 44.6195 32.5224 44.6493C32.6724 44.6792 32.8279 44.6638 32.9691 44.6053C33.1104 44.5468 33.2312 44.4477 33.3162 44.3205C33.4011 44.1934 33.4465 44.0439 33.4465 43.891C33.4462 43.6859 33.3647 43.4894 33.2197 43.3445C33.0748 43.1995 32.8782 43.118 32.6732 43.1177Z" fill="#3770FF"/>
<path d="M31.231 43.891C31.231 43.714 31.2862 43.5414 31.389 43.3973C31.4917 43.2531 31.6369 43.1446 31.8042 43.0869C31.6761 43.0427 31.5392 43.0298 31.4051 43.0492C31.271 43.0685 31.1434 43.1197 31.0331 43.1984C30.9227 43.277 30.8328 43.3809 30.7707 43.5014C30.7086 43.6219 30.6762 43.7554 30.6762 43.891C30.6762 44.0265 30.7086 44.16 30.7707 44.2805C30.8328 44.401 30.9227 44.5049 31.0331 44.5836C31.1434 44.6622 31.271 44.7134 31.4051 44.7328C31.5392 44.7522 31.6761 44.7392 31.8042 44.695C31.6369 44.6373 31.4917 44.5288 31.389 44.3847C31.2862 44.2405 31.231 44.068 31.231 43.891Z" fill="#3770FF"/>
<path d="M36.4345 54.8537C36.25 54.8535 36.0731 54.7801 35.9427 54.6496C35.8122 54.5192 35.7388 54.3423 35.7386 54.1578V52.0701C35.7386 51.8855 35.8119 51.7085 35.9424 51.578C36.073 51.4475 36.25 51.3741 36.4345 51.3741C36.6191 51.3741 36.7961 51.4475 36.9266 51.578C37.0571 51.7085 37.1304 51.8855 37.1304 52.0701V54.1578C37.1302 54.3423 37.0568 54.5192 36.9264 54.6496C36.7959 54.7801 36.619 54.8535 36.4345 54.8537Z" fill="#3770FF"/>
<path d="M38.2903 54.8537C38.1058 54.8535 37.9289 54.7801 37.7984 54.6496C37.668 54.5192 37.5946 54.3423 37.5944 54.1578V52.0701C37.5944 51.8855 37.6677 51.7085 37.7982 51.578C37.9287 51.4475 38.1057 51.3741 38.2903 51.3741C38.4748 51.3741 38.6518 51.4475 38.7823 51.578C38.9129 51.7085 38.9862 51.8855 38.9862 52.0701V54.1578C38.986 54.3423 38.9126 54.5192 38.7821 54.6496C38.6517 54.7801 38.4748 54.8535 38.2903 54.8537Z" fill="#3770FF"/>
<path d="M40.146 54.8537C39.9615 54.8535 39.7846 54.7801 39.6542 54.6496C39.5237 54.5192 39.4503 54.3423 39.4501 54.1578V52.0701C39.4501 51.8855 39.5234 51.7085 39.6539 51.578C39.7844 51.4475 39.9614 51.3741 40.146 51.3741C40.3306 51.3741 40.5076 51.4475 40.6381 51.578C40.7686 51.7085 40.8419 51.8855 40.8419 52.0701V54.1578C40.8417 54.3423 40.7683 54.5192 40.6379 54.6496C40.5074 54.7801 40.3305 54.8535 40.146 54.8537Z" fill="#3770FF"/>
<path d="M43.007 54.8537C42.8225 54.8535 42.6456 54.7801 42.5151 54.6496C42.3847 54.5192 42.3113 54.3423 42.3111 54.1578V52.0701C42.3111 51.8855 42.3844 51.7085 42.5149 51.578C42.6454 51.4475 42.8224 51.3741 43.007 51.3741C43.1915 51.3741 43.3685 51.4475 43.4991 51.578C43.6296 51.7085 43.7029 51.8855 43.7029 52.0701V54.1578C43.7027 54.3423 43.6293 54.5192 43.4988 54.6496C43.3684 54.7801 43.1915 54.8535 43.007 54.8537Z" fill="#3770FF"/>
<path d="M44.8627 54.8537C44.6782 54.8535 44.5013 54.7801 44.3709 54.6496C44.2404 54.5192 44.167 54.3423 44.1668 54.1578V52.0701C44.1668 51.8855 44.2401 51.7085 44.3706 51.578C44.5011 51.4475 44.6782 51.3741 44.8627 51.3741C45.0473 51.3741 45.2243 51.4475 45.3548 51.578C45.4853 51.7085 45.5586 51.8855 45.5586 52.0701V54.1578C45.5584 54.3423 45.485 54.5192 45.3546 54.6496C45.2241 54.7801 45.0472 54.8535 44.8627 54.8537Z" fill="#3770FF"/>
<path d="M46.7185 54.8537C46.534 54.8535 46.3571 54.7801 46.2266 54.6496C46.0962 54.5192 46.0228 54.3423 46.0226 54.1578V52.0701C46.0226 51.8855 46.0959 51.7085 46.2264 51.578C46.3569 51.4475 46.5339 51.3741 46.7185 51.3741C46.9031 51.3741 47.0801 51.4475 47.2106 51.578C47.3411 51.7085 47.4144 51.8855 47.4144 52.0701V54.1578C47.4142 54.3423 47.3408 54.5192 47.2103 54.6496C47.0799 54.7801 46.903 54.8535 46.7185 54.8537Z" fill="#3770FF"/>
<path d="M49.5795 54.8537C49.395 54.8535 49.2181 54.7801 49.0876 54.6496C48.9571 54.5192 48.8838 54.3423 48.8835 54.1578V52.0701C48.8835 51.8855 48.9569 51.7085 49.0874 51.578C49.2179 51.4475 49.3949 51.3741 49.5795 51.3741C49.764 51.3741 49.941 51.4475 50.0715 51.578C50.202 51.7085 50.2754 51.8855 50.2754 52.0701V54.1578C50.2751 54.3423 50.2018 54.5192 50.0713 54.6496C49.9408 54.7801 49.764 54.8535 49.5795 54.8537Z" fill="#3770FF"/>
<path d="M51.4352 54.8537C51.2507 54.8535 51.0738 54.7801 50.9434 54.6496C50.8129 54.5192 50.7395 54.3423 50.7393 54.1578V52.0701C50.7393 51.8855 50.8126 51.7085 50.9431 51.578C51.0736 51.4475 51.2506 51.3741 51.4352 51.3741C51.6198 51.3741 51.7968 51.4475 51.9273 51.578C52.0578 51.7085 52.1311 51.8855 52.1311 52.0701V54.1578C52.1309 54.3423 52.0575 54.5192 51.927 54.6496C51.7966 54.7801 51.6197 54.8535 51.4352 54.8537Z" fill="#3770FF"/>
<path d="M53.2909 54.8537C53.1064 54.8535 52.9296 54.7801 52.7991 54.6496C52.6686 54.5192 52.5952 54.3423 52.595 54.1578V52.0701C52.595 51.8855 52.6684 51.7085 52.7989 51.578C52.9294 51.4475 53.1064 51.3741 53.2909 51.3741C53.4755 51.3741 53.6525 51.4475 53.783 51.578C53.9135 51.7085 53.9868 51.8855 53.9868 52.0701V54.1578C53.9866 54.3423 53.9133 54.5192 53.7828 54.6496C53.6523 54.7801 53.4754 54.8535 53.2909 54.8537Z" fill="#3770FF"/>
<path d="M56.1519 54.8537C55.9674 54.8535 55.7905 54.7801 55.6601 54.6496C55.5296 54.5192 55.4562 54.3423 55.456 54.1578V52.0701C55.456 51.8855 55.5293 51.7085 55.6598 51.578C55.7903 51.4475 55.9673 51.3741 56.1519 51.3741C56.3365 51.3741 56.5135 51.4475 56.644 51.578C56.7745 51.7085 56.8478 51.8855 56.8478 52.0701V54.1578C56.8476 54.3423 56.7742 54.5192 56.6438 54.6496C56.5133 54.7801 56.3364 54.8535 56.1519 54.8537Z" fill="#3770FF"/>
<path d="M58.0077 54.8537C57.8232 54.8535 57.6463 54.7801 57.5158 54.6496C57.3854 54.5192 57.312 54.3423 57.3118 54.1578V52.0701C57.3118 51.8855 57.3851 51.7085 57.5156 51.578C57.6461 51.4475 57.8231 51.3741 58.0077 51.3741C58.1922 51.3741 58.3692 51.4475 58.4998 51.578C58.6303 51.7085 58.7036 51.8855 58.7036 52.0701V54.1578C58.7034 54.3423 58.63 54.5192 58.4995 54.6496C58.3691 54.7801 58.1922 54.8535 58.0077 54.8537Z" fill="#3770FF"/>
<path d="M59.8634 54.8537C59.6789 54.8535 59.502 54.7801 59.3716 54.6496C59.2411 54.5192 59.1677 54.3423 59.1675 54.1578V52.0701C59.1675 51.8855 59.2408 51.7085 59.3713 51.578C59.5018 51.4475 59.6789 51.3741 59.8634 51.3741C60.048 51.3741 60.225 51.4475 60.3555 51.578C60.486 51.7085 60.5593 51.8855 60.5593 52.0701V54.1578C60.5591 54.3423 60.4857 54.5192 60.3553 54.6496C60.2248 54.7801 60.0479 54.8535 59.8634 54.8537Z" fill="#3770FF"/>
<path d="M41.1526 62.5989H31.1439C31.0199 62.5989 30.9009 62.5496 30.8132 62.4619C30.7255 62.3742 30.6763 62.2553 30.6763 62.1313C30.6763 62.0073 30.7255 61.8883 30.8132 61.8007C30.9009 61.713 31.0199 61.6637 31.1439 61.6637H41.1526C41.2766 61.6637 41.3956 61.713 41.4832 61.8007C41.5709 61.8883 41.6202 62.0073 41.6202 62.1313C41.6202 62.2553 41.5709 62.3742 41.4832 62.4619C41.3956 62.5496 41.2766 62.5989 41.1526 62.5989Z" fill="#E6E6E6"/>
<path d="M37.9437 60.5885H34.3528C34.2288 60.5885 34.1098 60.5393 34.0222 60.4516C33.9345 60.3639 33.8852 60.2449 33.8852 60.1209C33.8852 59.9969 33.9345 59.878 34.0222 59.7903C34.1098 59.7026 34.2288 59.6533 34.3528 59.6533H37.9437C38.0677 59.6533 38.1867 59.7026 38.2743 59.7903C38.362 59.878 38.4113 59.9969 38.4113 60.1209C38.4113 60.2449 38.362 60.3639 38.2743 60.4516C38.1867 60.5393 38.0677 60.5885 37.9437 60.5885Z" fill="#E6E6E6"/>
<path d="M66.7452 46.4255H28.6249V46.5801H66.7452V46.4255Z" fill="#3F3D56"/>
</g>
<defs>
<clipPath id="clip0_1_101">
<rect width="43.8554" height="40" fill="white" transform="translate(23.0723 25)"/>
</clipPath>
</defs>
</svg>
