<svg width="90" height="90" viewBox="0 0 90 90" fill="none" xmlns="http://www.w3.org/2000/svg">
<rect x="2.5" y="2.5" width="85" height="85" rx="42.5" fill="#EBF1FF"/>
<rect x="2.5" y="2.5" width="85" height="85" rx="42.5" stroke="#3770FF" stroke-width="5"/>
<g clip-path="url(#clip0_1_134)">
<path d="M28.8948 58.6965L28.5436 57.3113C27.9208 57.0473 27.2837 56.8187 26.6352 56.6266L26.5909 57.2704L26.4111 56.5611C25.6068 56.3312 25.0597 56.23 25.0597 56.23C25.0597 56.23 25.7985 59.0404 27.3488 61.1889L29.155 61.5062L27.7518 61.7086C27.9468 61.9432 28.1564 62.1653 28.3793 62.3737C30.6342 64.4667 33.1458 65.4271 33.989 64.5186C34.8323 63.6101 33.6878 61.1769 31.4329 59.084C30.7339 58.4352 29.8557 57.9145 28.9767 57.5046L28.8948 58.6965Z" fill="#F2F2F2"/>
<path d="M32.2351 57.1919L32.6505 55.8245C32.2538 55.2767 31.8266 54.7517 31.3708 54.2519L31.0001 54.7801L31.2128 54.08C30.643 53.4677 30.2269 53.0983 30.2269 53.0983C30.2269 53.0983 29.4069 55.8861 29.6233 58.5266L31.0054 59.7319L29.6994 59.1797C29.7451 59.4814 29.8098 59.78 29.8929 60.0736C30.7414 63.0309 32.395 65.1512 33.5864 64.8094C34.7778 64.4676 35.0559 61.7931 34.2075 58.8358C33.9445 57.919 33.4619 57.0193 32.9213 56.2141L32.2351 57.1919Z" fill="#F2F2F2"/>
<path d="M52.8882 34.476H52.6691V28.474C52.6691 28.0178 52.5792 27.566 52.4046 27.1445C52.2301 26.7231 51.9742 26.3401 51.6516 26.0175C51.329 25.6949 50.946 25.439 50.5245 25.2644C50.1031 25.0899 49.6513 25 49.1951 25H36.4785C35.5572 25 34.6735 25.366 34.022 26.0175C33.3706 26.669 33.0045 27.5526 33.0045 28.474V61.4023C33.0045 61.8585 33.0944 62.3102 33.269 62.7317C33.4436 63.1532 33.6995 63.5362 34.022 63.8588C34.3446 64.1814 34.7276 64.4372 35.1491 64.6118C35.5706 64.7864 36.0223 64.8763 36.4785 64.8763H49.1951C50.1165 64.8762 51.0001 64.5102 51.6515 63.8587C52.303 63.2072 52.669 62.3236 52.669 61.4023V38.7484H52.8881L52.8882 34.476Z" fill="#E6E6E6"/>
<path d="M49.3353 25.9034H47.6755C47.7518 26.0906 47.781 26.2937 47.7603 26.4947C47.7397 26.6958 47.6699 26.8887 47.5572 27.0565C47.4444 27.2242 47.2921 27.3617 47.1137 27.4567C46.9353 27.5518 46.7363 27.6015 46.5342 27.6015H39.249C39.0469 27.6015 38.8478 27.5517 38.6695 27.4567C38.4911 27.3617 38.3388 27.2242 38.2261 27.0564C38.1133 26.8887 38.0436 26.6958 38.0229 26.4947C38.0023 26.2936 38.0315 26.0906 38.1078 25.9034H36.5574C35.8694 25.9034 35.2095 26.1768 34.723 26.6633C34.2364 27.1498 33.9631 27.8097 33.9631 28.4978V61.3783C33.9631 62.0663 34.2364 62.7262 34.723 63.2127C35.2095 63.6993 35.8694 63.9726 36.5574 63.9726H49.3353C50.0233 63.9726 50.6832 63.6993 51.1697 63.2127C51.6563 62.7262 51.9296 62.0663 51.9296 61.3783V28.4977C51.9296 27.8097 51.6563 27.1498 51.1697 26.6633C50.6832 26.1768 50.0233 25.9034 49.3353 25.9034Z" fill="white"/>
<path d="M41.3181 39.0014C41.3181 38.7715 41.3786 38.5458 41.4935 38.3467C41.6085 38.1477 41.7738 37.9825 41.9729 37.8677C41.7739 37.7527 41.5482 37.6922 41.3184 37.6922C41.0886 37.6922 40.8628 37.7526 40.6638 37.8675C40.4647 37.9824 40.2994 38.1477 40.1845 38.3467C40.0696 38.5457 40.0091 38.7715 40.0091 39.0013C40.0091 39.2311 40.0696 39.4569 40.1845 39.6559C40.2994 39.8549 40.4647 40.0202 40.6638 40.1351C40.8628 40.25 41.0886 40.3104 41.3184 40.3104C41.5482 40.3104 41.7739 40.2499 41.9729 40.1349C41.7739 40.0201 41.6085 39.8549 41.4936 39.6559C41.3786 39.457 41.3181 39.2312 41.3181 39.0014Z" fill="#CCCCCC"/>
<path d="M42.9639 39.0014C42.9638 38.7715 43.0243 38.5458 43.1393 38.3467C43.2542 38.1477 43.4196 37.9825 43.6187 37.8677C43.4197 37.7527 43.1939 37.6922 42.9641 37.6922C42.7343 37.6922 42.5085 37.7526 42.3095 37.8675C42.1105 37.9824 41.9452 38.1477 41.8303 38.3467C41.7153 38.5457 41.6548 38.7715 41.6548 39.0013C41.6548 39.2311 41.7153 39.4569 41.8303 39.6559C41.9452 39.8549 42.1105 40.0202 42.3095 40.1351C42.5085 40.25 42.7343 40.3104 42.9641 40.3104C43.1939 40.3104 43.4197 40.2499 43.6187 40.1349C43.4196 40.0201 43.2542 39.8549 43.1393 39.6559C43.0243 39.457 42.9638 39.2312 42.9639 39.0014Z" fill="#CCCCCC"/>
<path d="M44.5722 40.3105C45.2952 40.3105 45.8813 39.7244 45.8813 39.0014C45.8813 38.2784 45.2952 37.6923 44.5722 37.6923C43.8492 37.6923 43.2631 38.2784 43.2631 39.0014C43.2631 39.7244 43.8492 40.3105 44.5722 40.3105Z" fill="#3770FF"/>
<path d="M46.76 43.0902H39.1303C39.0577 43.0901 38.988 43.0612 38.9367 43.0098C38.8853 42.9585 38.8564 42.8888 38.8563 42.8162V35.1865C38.8564 35.1138 38.8853 35.0442 38.9367 34.9928C38.988 34.9415 39.0577 34.9126 39.1303 34.9125H46.76C46.8327 34.9126 46.9023 34.9415 46.9537 34.9928C47.005 35.0442 47.0339 35.1138 47.034 35.1865V42.8162C47.0339 42.8888 47.005 42.9585 46.9537 43.0098C46.9023 43.0612 46.8327 43.0901 46.76 43.0902ZM39.1303 35.0221C39.0867 35.0222 39.0449 35.0395 39.0141 35.0703C38.9833 35.1011 38.966 35.1429 38.9659 35.1865V42.8162C38.966 42.8598 38.9833 42.9016 39.0141 42.9324C39.0449 42.9632 39.0867 42.9806 39.1303 42.9806H46.76C46.8036 42.9806 46.8454 42.9632 46.8762 42.9324C46.907 42.9016 46.9244 42.8598 46.9244 42.8162V35.1865C46.9244 35.1429 46.907 35.1011 46.8762 35.0703C46.8454 35.0395 46.8036 35.0222 46.76 35.0221H39.1303Z" fill="#CCCCCC"/>
<path d="M48.4636 48.9387H36.7619V49.0483H48.4636V48.9387Z" fill="#CCCCCC"/>
<path d="M37.1314 48.2545C37.3355 48.2545 37.501 48.089 37.501 47.8849C37.501 47.6808 37.3355 47.5154 37.1314 47.5154C36.9274 47.5154 36.7619 47.6808 36.7619 47.8849C36.7619 48.089 36.9274 48.2545 37.1314 48.2545Z" fill="#3770FF"/>
<path d="M48.4636 52.634H36.7619V52.7436H48.4636V52.634Z" fill="#CCCCCC"/>
<path d="M37.1314 51.9498C37.3355 51.9498 37.501 51.7843 37.501 51.5802C37.501 51.3761 37.3355 51.2107 37.1314 51.2107C36.9274 51.2107 36.7619 51.3761 36.7619 51.5802C36.7619 51.7843 36.9274 51.9498 37.1314 51.9498Z" fill="#3770FF"/>
<path d="M48.2495 56.842H44.5514C44.4875 56.8419 44.4263 56.8165 44.3811 56.7713C44.336 56.7262 44.3106 56.6649 44.3105 56.601V55.3049C44.3106 55.241 44.336 55.1798 44.3811 55.1346C44.4263 55.0894 44.4875 55.064 44.5514 55.064H48.2495C48.3134 55.064 48.3746 55.0894 48.4198 55.1346C48.4649 55.1798 48.4904 55.241 48.4904 55.3049V56.601C48.4904 56.6649 48.4649 56.7262 48.4198 56.7713C48.3746 56.8165 48.3134 56.8419 48.2495 56.842Z" fill="#3770FF"/>
<path d="M38.3369 48.2545C38.541 48.2545 38.7064 48.089 38.7064 47.8849C38.7064 47.6808 38.541 47.5154 38.3369 47.5154C38.1328 47.5154 37.9673 47.6808 37.9673 47.8849C37.9673 48.089 38.1328 48.2545 38.3369 48.2545Z" fill="#3770FF"/>
<path d="M39.5423 48.2545C39.7464 48.2545 39.9119 48.089 39.9119 47.8849C39.9119 47.6808 39.7464 47.5154 39.5423 47.5154C39.3382 47.5154 39.1728 47.6808 39.1728 47.8849C39.1728 48.089 39.3382 48.2545 39.5423 48.2545Z" fill="#3770FF"/>
<path d="M38.3369 51.9498C38.541 51.9498 38.7064 51.7843 38.7064 51.5802C38.7064 51.3761 38.541 51.2107 38.3369 51.2107C38.1328 51.2107 37.9673 51.3761 37.9673 51.5802C37.9673 51.7843 38.1328 51.9498 38.3369 51.9498Z" fill="#3770FF"/>
<path d="M39.5423 51.9498C39.7464 51.9498 39.9119 51.7843 39.9119 51.5802C39.9119 51.3761 39.7464 51.2107 39.5423 51.2107C39.3382 51.2107 39.1728 51.3761 39.1728 51.5802C39.1728 51.7843 39.3382 51.9498 39.5423 51.9498Z" fill="#3770FF"/>
<path d="M64.7914 65H26.349C26.2667 65 26.2 64.9708 26.2 64.9348C26.2 64.8988 26.2667 64.8695 26.349 64.8695H64.7914C64.8736 64.8695 64.9403 64.8987 64.9403 64.9348C64.9403 64.9708 64.8736 65 64.7914 65Z" fill="#3F3D56"/>
<path d="M55.2936 51.2067C55.3198 51.2187 55.3451 51.2328 55.3691 51.2489L57.7706 50.2239L57.8563 49.5913L58.8159 49.5854L58.7592 51.0363L55.5895 51.8746C55.5828 51.8966 55.5748 51.9182 55.5655 51.9393C55.5197 52.0371 55.446 52.1191 55.3537 52.1752C55.2614 52.2312 55.1546 52.2587 55.0467 52.2543C54.9388 52.2498 54.8346 52.2135 54.7472 52.1501C54.6599 52.0866 54.5932 51.9987 54.5556 51.8975C54.518 51.7962 54.5112 51.6861 54.536 51.581C54.5608 51.4759 54.616 51.3805 54.6949 51.3067C54.7737 51.2329 54.8726 51.184 54.9791 51.1662C55.0856 51.1485 55.195 51.1625 55.2936 51.2067Z" fill="#FFB8B8"/>
<path d="M59.1648 64.3545H58.5084L58.1962 61.8226L59.165 61.8227L59.1648 64.3545Z" fill="#FFB8B8"/>
<path d="M58.0395 64.1669H59.3055V64.964H57.2425C57.2425 64.7526 57.3264 64.5499 57.4759 64.4004C57.6254 64.2509 57.8281 64.1669 58.0395 64.1669Z" fill="#2F2E41"/>
<path d="M61.7177 64.169L61.0645 64.2334L60.5054 61.7443L61.4696 61.6494L61.7177 64.169Z" fill="#FFB8B8"/>
<path d="M60.5795 64.0927L61.8393 63.9686L61.9175 64.7619L59.8644 64.9641C59.8541 64.8599 59.8645 64.7547 59.8949 64.6546C59.9253 64.5544 59.9751 64.4612 60.0415 64.3803C60.1079 64.2994 60.1896 64.2323 60.2819 64.183C60.3742 64.1336 60.4753 64.103 60.5795 64.0927Z" fill="#2F2E41"/>
<path d="M59.3475 46.9059C60.0738 46.9059 60.6626 46.3171 60.6626 45.5909C60.6626 44.8646 60.0738 44.2758 59.3475 44.2758C58.6213 44.2758 58.0325 44.8646 58.0325 45.5909C58.0325 46.3171 58.6213 46.9059 59.3475 46.9059Z" fill="#FFB8B8"/>
<path d="M58.3617 63.8425C58.3053 63.8426 58.2507 63.8228 58.2074 63.7866C58.1642 63.7504 58.1351 63.7001 58.1254 63.6445C57.7856 61.7585 56.675 55.5915 56.6485 55.4207C56.6479 55.4168 56.6476 55.4128 56.6476 55.4088V54.949C56.6476 54.9323 56.6528 54.9159 56.6626 54.9023L56.8093 54.6968C56.8163 54.687 56.8254 54.6788 56.836 54.673C56.8466 54.6672 56.8584 54.6639 56.8705 54.6634C57.707 54.6242 60.4463 54.5092 60.5786 54.6746C60.7115 54.8407 60.6646 55.3442 60.6538 55.4434L60.6543 55.4538L61.885 63.3242C61.8946 63.387 61.8792 63.451 61.8419 63.5025C61.8047 63.5539 61.7487 63.5886 61.6861 63.5991L60.9174 63.7258C60.8602 63.735 60.8015 63.7233 60.7522 63.6929C60.7028 63.6625 60.6659 63.6154 60.6484 63.5602C60.4106 62.8005 59.6134 60.245 59.3372 59.2561C59.3354 59.2499 59.3315 59.2444 59.3261 59.2409C59.3206 59.2373 59.3141 59.2358 59.3076 59.2368C59.3012 59.2377 59.2953 59.2409 59.2911 59.2458C59.2869 59.2507 59.2846 59.2571 59.2847 59.2635C59.2985 60.2062 59.3318 62.6112 59.3433 63.4418L59.3446 63.5313C59.3451 63.5918 59.3229 63.6504 59.2823 63.6954C59.2417 63.7403 59.1857 63.7684 59.1254 63.7741L58.3842 63.8415C58.3767 63.8422 58.3692 63.8425 58.3617 63.8425Z" fill="#2F2E41"/>
<path d="M58.513 47.423C58.2835 47.5594 58.1461 47.8101 58.0674 48.0652C57.9215 48.5375 57.8336 49.0259 57.8058 49.5194L57.7225 50.9972L56.6916 54.9148C57.5851 55.6709 58.1006 55.4991 59.3034 54.8806C60.5062 54.2622 60.6437 55.0868 60.6437 55.0868L60.8842 51.7534L61.2279 48.1108C61.1507 48.0179 61.0634 47.934 60.9676 47.8605C60.6499 47.6135 60.2804 47.4419 59.8867 47.3584C59.4931 47.275 59.0856 47.282 58.6951 47.3789L58.513 47.423Z" fill="#3770FF"/>
<path d="M58.1781 51.9979C58.2058 52.0084 58.2327 52.021 58.2585 52.0356L60.633 50.8471L60.6724 50.2033L61.6518 50.1357L61.7043 51.6035L58.5311 52.6529C58.5052 52.764 58.4461 52.8646 58.3616 52.9413C58.2771 53.018 58.1713 53.0672 58.0582 53.0823C57.9451 53.0974 57.83 53.0777 57.7284 53.0258C57.6268 52.9739 57.5433 52.8923 57.4892 52.7919C57.435 52.6914 57.4127 52.5769 57.4253 52.4635C57.4378 52.3501 57.4846 52.2431 57.5594 52.1569C57.6342 52.0708 57.7334 52.0094 57.844 51.981C57.9545 51.9526 58.071 51.9585 58.1781 51.9979Z" fill="#FFB8B8"/>
<path d="M61.2106 48.1275C61.7949 48.3337 61.8978 50.5676 61.8978 50.5676C61.2105 50.1896 60.3857 50.8082 60.3857 50.8082C60.3857 50.8082 60.2139 50.2239 60.0077 49.4679C59.9454 49.2552 59.9379 49.0303 59.986 48.814C60.0341 48.5977 60.1361 48.397 60.2826 48.2307C60.2826 48.2307 60.6264 47.9212 61.2106 48.1275Z" fill="#3770FF"/>
<path d="M60.5267 45.9386C60.3629 45.8075 60.1393 46.0458 60.1393 46.0458L60.0082 44.8661C60.0082 44.8661 59.189 44.9642 58.6647 44.8333C58.1404 44.7025 58.0584 45.3085 58.0584 45.3085C58.0314 45.0637 58.0259 44.817 58.0421 44.5712C58.0748 44.2763 58.5008 43.9813 59.2545 43.7847C60.0082 43.5881 60.4014 44.4401 60.4014 44.4401C60.9258 44.7022 60.6905 46.0697 60.5267 45.9386Z" fill="#2F2E41"/>
</g>
<defs>
<clipPath id="clip0_1_134">
<rect width="39.8806" height="40" fill="white" transform="translate(25.0597 25)"/>
</clipPath>
</defs>
</svg>
