<svg width="90" height="90" viewBox="0 0 90 90" fill="none" xmlns="http://www.w3.org/2000/svg">
<rect x="2.5" y="2.5" width="85" height="85" rx="42.5" fill="#EBF1FF"/>
<rect x="2.5" y="2.5" width="85" height="85" rx="42.5" stroke="#3770FF" stroke-width="5"/>
<g clip-path="url(#clip0_1_217)">
<path d="M62.7716 64.5477C61.915 63.8239 61.3947 62.6805 61.5312 61.5675C61.6676 60.4544 62.5127 59.4311 63.6089 59.1947C64.7052 58.9584 65.9548 59.6127 66.2877 60.6835C66.471 58.619 66.6821 56.4679 67.7798 54.7097C68.7737 53.1178 70.4951 51.9787 72.3608 51.7749C74.2264 51.5711 76.1907 52.3408 77.3543 53.8133C78.5178 55.2858 78.8027 57.4266 77.9878 59.1172C77.3875 60.3626 76.2815 61.2895 75.1227 62.0435C71.3781 64.4595 66.8871 65.442 62.4757 64.8102L62.7716 64.5477Z" fill="#F2F2F2"/>
<path d="M75.5094 52.3834C73.97 53.6372 72.5577 55.0396 71.2931 56.5701C69.3139 58.9572 67.7124 61.6336 66.5442 64.506C66.4587 64.7155 66.7989 64.8068 66.8835 64.5995C68.7948 59.9313 71.8461 55.8167 75.7582 52.6322C75.9339 52.4891 75.6836 52.2415 75.5094 52.3834Z" fill="white"/>
<path d="M33.0852 64.3509C34.2617 63.3568 34.9764 61.7864 34.789 60.2576C34.6015 58.7287 33.4408 57.3233 31.9351 56.9986C30.4295 56.674 28.7131 57.5727 28.2558 59.0435C28.0041 56.2078 27.7141 53.2533 26.2065 50.8385C24.8413 48.6519 22.4769 47.0873 19.9145 46.8074C17.352 46.5275 14.654 47.5847 13.0559 49.6072C11.4578 51.6298 11.0665 54.5701 12.1858 56.8921C13.0103 58.6027 14.5294 59.8757 16.121 60.9114C21.1989 64.2155 27.4979 65.5936 33.4916 64.7115" fill="#F2F2F2"/>
<path d="M15.5899 47.6433C17.7042 49.3655 19.6439 51.2916 21.3809 53.3939C23.1182 55.4939 24.6477 57.7575 25.9479 60.1529C26.6746 61.4966 27.3275 62.8789 27.9035 64.2938C28.021 64.5816 27.5536 64.7069 27.4375 64.4223C26.4172 61.9279 25.1548 59.5395 23.6686 57.2913C22.1895 55.0513 20.4967 52.9601 18.6139 51.047C17.5489 49.9654 16.4253 48.9433 15.2481 47.9851C15.0068 47.7886 15.3506 47.4485 15.5899 47.6433Z" fill="white"/>
<path d="M59.573 64.9124H31.5036V36.1124C31.5036 29.985 36.4886 25 42.616 25H48.4606C54.588 25 59.573 29.985 59.573 36.1124V64.9124Z" fill="#F2F2F2"/>
<path d="M53.7284 64.9124H31.5036V36.1124C31.4974 33.7645 32.2409 31.476 33.6258 29.58C33.6768 29.5104 33.7277 29.4417 33.7802 29.3738C34.4501 28.4953 35.2472 27.7216 36.1453 27.0782C36.196 27.0413 36.247 27.005 36.2987 26.9688C37.0502 26.4487 37.8631 26.0236 38.719 25.703C38.7698 25.6838 38.8215 25.6645 38.8733 25.6459C39.6473 25.3697 40.4497 25.1805 41.2656 25.0818C41.3162 25.0749 41.3681 25.0695 41.42 25.0641C42.2151 24.9791 43.017 24.9791 43.8121 25.0641C43.8639 25.0695 43.9158 25.0749 43.967 25.0819C44.7827 25.1806 45.5849 25.3698 46.3587 25.6459C46.4105 25.6645 46.4622 25.6838 46.5132 25.7031C47.3585 26.0196 48.1618 26.4383 48.9054 26.9501C48.957 26.9856 49.0087 27.0219 49.0597 27.0581C49.5631 27.4175 50.0359 27.8178 50.4734 28.255C50.8242 28.6057 51.1511 28.9796 51.4519 29.374C51.5043 29.4417 51.5552 29.5104 51.6061 29.5799C52.991 31.4759 53.7346 33.7645 53.7284 36.1124V64.9124Z" fill="#CCCCCC"/>
<path d="M51.9212 52.0313C52.6008 52.0313 53.1517 51.4804 53.1517 50.8009C53.1517 50.1213 52.6008 49.5704 51.9212 49.5704C51.2417 49.5704 50.6908 50.1213 50.6908 50.8009C50.6908 51.4804 51.2417 52.0313 51.9212 52.0313Z" fill="#3770FF"/>
<path d="M57.2735 64.0498H56.3307L55.8821 60.4132L57.2737 60.4133L57.2735 64.0498Z" fill="#FFB8B8"/>
<path d="M55.6573 63.7804H57.4756V64.9252H54.5125C54.5125 64.7749 54.5421 64.626 54.5996 64.4871C54.6571 64.3482 54.7415 64.222 54.8478 64.1157C54.9541 64.0094 55.0803 63.9251 55.2192 63.8675C55.3581 63.81 55.5069 63.7804 55.6573 63.7804Z" fill="#2F2E41"/>
<path d="M61.9646 64.0498H61.0218L60.5732 60.4132L61.9648 60.4133L61.9646 64.0498Z" fill="#FFB8B8"/>
<path d="M60.3483 63.7804H62.1666V64.9252H59.2035C59.2035 64.7749 59.2331 64.626 59.2906 64.4871C59.3482 64.3482 59.4325 64.222 59.5388 64.1157C59.6451 64.0094 59.7713 63.9251 59.9102 63.8675C60.0491 63.81 60.198 63.7804 60.3483 63.7804Z" fill="#2F2E41"/>
<path d="M52.5439 51.0446C52.4761 50.9447 52.431 50.8311 52.4119 50.7118C52.3927 50.5926 52.3999 50.4706 52.4329 50.3544C52.466 50.2383 52.5241 50.1308 52.6033 50.0395C52.6824 49.9482 52.7805 49.8754 52.8908 49.8262L56.0958 40.9927L57.6728 41.8533L54.0135 50.295C54.0839 50.4857 54.0818 50.6957 54.0078 50.8851C53.9337 51.0745 53.7928 51.2301 53.6117 51.3225C53.4305 51.4149 53.2218 51.4376 53.025 51.3864C52.8282 51.3352 52.6571 51.2136 52.5439 51.0446Z" fill="#FFB8B8"/>
<path d="M61.483 52.7044C61.3782 52.6443 61.2879 52.562 61.2184 52.4633C61.1488 52.3645 61.1018 52.2517 61.0806 52.1328C61.0594 52.0139 61.0645 51.8918 61.0956 51.7751C61.1267 51.6584 61.183 51.5499 61.2605 51.4573L60.2676 42.1129L62.0624 42.1949L62.475 51.3863C62.6219 51.5269 62.7122 51.7165 62.7287 51.9192C62.7452 52.1219 62.6867 52.3235 62.5644 52.486C62.4422 52.6485 62.2645 52.7604 62.0652 52.8007C61.8659 52.8409 61.6587 52.8067 61.483 52.7044Z" fill="#FFB8B8"/>
<path d="M58.6199 39.3565C59.663 39.3565 60.5087 38.5108 60.5087 37.4677C60.5087 36.4245 59.663 35.5789 58.6199 35.5789C57.5767 35.5789 56.7311 36.4245 56.7311 37.4677C56.7311 38.5108 57.5767 39.3565 58.6199 39.3565Z" fill="#FFB8B8"/>
<path d="M61.4709 50.5792H55.7766L55.7834 50.5349C55.7936 50.4687 56.7983 43.8875 56.0573 41.7345C55.983 41.5229 55.9895 41.2913 56.0757 41.0842C56.1618 40.8772 56.3215 40.7093 56.5241 40.613C57.5831 40.1142 59.6161 39.5001 61.332 40.9905C61.5845 41.2134 61.7817 41.492 61.908 41.8043C62.0342 42.1166 62.0861 42.4539 62.0595 42.7897L61.4709 50.5792Z" fill="#3770FF"/>
<path d="M56.8703 44.8601L54.3066 44.34L55.5083 41.4923C55.5802 41.2165 55.7586 40.9805 56.0043 40.836C56.25 40.6915 56.543 40.6504 56.8189 40.7217C57.0949 40.7929 57.3314 40.9707 57.4765 41.2161C57.6215 41.4614 57.6634 41.7543 57.5928 42.0305L56.8703 44.8601Z" fill="#3770FF"/>
<path d="M60.1537 45.8259L59.9996 42.2929C59.8827 41.6287 60.2629 41.0009 60.8476 40.8982C61.4325 40.796 62.0036 41.2566 62.121 41.9256L62.7003 45.2269L60.1537 45.8259Z" fill="#3770FF"/>
<path d="M61.2815 50.1562C62.1977 53.6458 62.2977 58.0826 62.0505 62.9221L60.8201 62.7683L58.5899 53.54L57.3595 62.9221L55.9752 62.8452C55.5617 57.7673 55.159 53.4081 55.8214 50.5408L61.2815 50.1562Z" fill="#2F2E41"/>
<path d="M59.8644 38.9274C59.512 39.3027 58.8577 39.1012 58.8117 38.5885C58.8081 38.5487 58.8084 38.5086 58.8125 38.4688C58.8362 38.2417 58.9675 38.0355 58.936 37.7957C58.9289 37.736 58.9067 37.6791 58.8714 37.6304C58.5906 37.2544 57.9315 37.7986 57.6665 37.4582C57.504 37.2495 57.695 36.9209 57.5703 36.6876C57.4057 36.3797 56.9183 36.5316 56.6126 36.363C56.2725 36.1754 56.2928 35.6535 56.5167 35.3361C56.7897 34.949 57.2685 34.7425 57.7412 34.7127C58.214 34.6829 58.6835 34.8107 59.1249 34.9827C59.6264 35.1782 60.1237 35.4483 60.4323 35.8892C60.8076 36.4255 60.8437 37.1464 60.656 37.7735C60.5418 38.1549 60.1522 38.6209 59.8644 38.9274Z" fill="#2F2E41"/>
<path d="M76.1441 64.9619H19.3674C19.3432 64.9619 19.32 64.9522 19.3028 64.935C19.2857 64.9179 19.2761 64.8946 19.2761 64.8704C19.2761 64.8461 19.2857 64.8229 19.3028 64.8057C19.32 64.7886 19.3432 64.7789 19.3674 64.7788H76.1441C76.1684 64.7789 76.1916 64.7886 76.2087 64.8057C76.2258 64.8229 76.2354 64.8461 76.2354 64.8704C76.2354 64.8946 76.2258 64.9179 76.2087 64.935C76.1916 64.9522 76.1684 64.9619 76.1441 64.9619Z" fill="#3F3D56"/>
<path d="M47.6147 56.5685H37.6174C37.4857 56.5692 37.3591 56.5177 37.2654 56.4252C37.1717 56.3327 37.1185 56.2068 37.1175 56.0752V33.7604C37.1185 33.6287 37.1717 33.5028 37.2654 33.4104C37.3591 33.3179 37.4857 33.2663 37.6174 33.267H47.6147C47.7464 33.2663 47.8729 33.3179 47.9666 33.4104C48.0603 33.5028 48.1135 33.6287 48.1146 33.7604V56.0752C48.1135 56.2068 48.0603 56.3327 47.9666 56.4252C47.8729 56.5177 47.7464 56.5692 47.6147 56.5685Z" fill="white"/>
<path d="M48.1146 40.4874H37.1175V40.6412H48.1146V40.4874Z" fill="#CCCCCC"/>
<path d="M48.153 49.2628H37.1559V49.4166H48.153V49.2628Z" fill="#CCCCCC"/>
<path d="M40.7319 33.267H40.5781V56.6454H40.7319V33.267Z" fill="#CCCCCC"/>
<path d="M44.577 33.267H44.4232V56.6454H44.577V33.267Z" fill="#CCCCCC"/>
</g>
<defs>
<clipPath id="clip0_1_217">
<rect width="66.9052" height="40" fill="white" transform="translate(11.5474 25)"/>
</clipPath>
</defs>
</svg>
