<svg width="90" height="90" viewBox="0 0 90 90" fill="none" xmlns="http://www.w3.org/2000/svg">
<rect x="2.5" y="2.5" width="85" height="85" rx="42.5" fill="#EBF1FF"/>
<rect x="2.5" y="2.5" width="85" height="85" rx="42.5" stroke="#3770FF" stroke-width="5"/>
<g clip-path="url(#clip0_1_171)">
<path d="M35.5746 62.8496C35.519 62.8521 35.464 62.8375 35.417 62.8078C35.37 62.778 35.3333 62.7345 35.3119 62.6832C35.2904 62.6319 35.2853 62.5752 35.2971 62.5209C35.3089 62.4665 35.3372 62.4171 35.378 62.3794C35.3848 62.3522 35.3897 62.3327 35.3966 62.3055C35.3941 62.2996 35.3917 62.2937 35.3892 62.2878C35.3332 62.1555 35.2394 62.0428 35.1196 61.9637C34.9998 61.8847 34.8593 61.8428 34.7157 61.8433C34.5721 61.8438 34.4319 61.8868 34.3127 61.9667C34.1934 62.0467 34.1005 62.1601 34.0455 62.2927C33.8257 62.8221 33.5459 63.3523 33.477 63.9119C33.4467 64.1593 33.4595 64.4101 33.5148 64.6531C32.9987 63.5271 32.7306 62.3033 32.7289 61.0646C32.7288 60.7538 32.746 60.4432 32.7806 60.1343C32.8092 59.8811 32.8488 59.6296 32.8995 59.38C33.1762 58.0255 33.7702 56.756 34.6328 55.6757C35.0502 55.4479 35.3879 55.0976 35.6001 54.672C35.677 54.5191 35.7314 54.3558 35.7615 54.1872C35.7144 54.1934 35.6665 54.1972 35.6194 54.2003C35.6048 54.2011 35.5893 54.2019 35.5747 54.2026L35.5691 54.2029C35.5174 54.2052 35.466 54.1925 35.4213 54.1663C35.3766 54.1402 35.3404 54.1016 35.3171 54.0554C35.2938 54.0091 35.2843 53.9571 35.2899 53.9056C35.2954 53.8541 35.3158 53.8053 35.3484 53.765C35.3687 53.74 35.3891 53.715 35.4094 53.69C35.4403 53.6514 35.472 53.6136 35.5029 53.575C35.5064 53.5713 35.5098 53.5674 35.5129 53.5634C35.5484 53.5194 35.5839 53.4761 35.6194 53.4321C35.5546 53.3315 35.4674 53.2472 35.3647 53.1858C35.0087 52.9774 34.5177 53.1218 34.2606 53.4437C34.0028 53.7657 33.9541 54.2173 34.0437 54.6195C34.1318 54.9618 34.2774 55.2866 34.4745 55.58C34.4552 55.6047 34.4351 55.6286 34.4158 55.6533C34.063 56.107 33.7555 56.5942 33.4977 57.1079C33.5604 56.5324 33.4855 55.9503 33.2794 55.4094C33.0704 54.9052 32.6787 54.4807 32.3338 54.0449C31.9195 53.5214 31.0699 53.7499 30.9969 54.4134C30.9962 54.4199 30.9955 54.4263 30.9949 54.4327C31.0461 54.4616 31.0962 54.4923 31.1453 54.5247C31.207 54.5659 31.2547 54.6248 31.2823 54.6936C31.31 54.7624 31.3162 54.8379 31.3001 54.9103C31.2841 54.9826 31.2466 55.0485 31.1925 55.0992C31.1384 55.1499 31.0702 55.183 30.997 55.1943L30.9895 55.1955C31.0077 55.3801 31.04 55.5631 31.086 55.7429C31.2192 56.2447 31.4547 56.7136 31.7777 57.1201C32.1007 57.5266 32.5041 57.8621 32.9628 58.1054C32.9929 58.1208 33.0223 58.1362 33.0524 58.1509C32.7934 58.8849 32.6309 59.6495 32.5691 60.4254C32.5341 60.8831 32.5361 61.343 32.5753 61.8004L32.5729 61.7842C32.4741 61.2755 32.2028 60.8166 31.8047 60.4848C31.2136 59.9992 30.3784 59.8204 29.7406 59.43C29.6728 59.3865 29.594 59.3633 29.5135 59.3631C29.4329 59.3629 29.354 59.3857 29.286 59.4289C29.218 59.4721 29.1638 59.5338 29.1297 59.6068C29.0957 59.6798 29.0832 59.761 29.0938 59.8409C29.0946 59.8465 29.0955 59.8522 29.0964 59.8579C29.1915 59.8966 29.284 59.9412 29.3736 59.9915C29.4248 60.0204 29.4749 60.051 29.524 60.0835C29.5857 60.1247 29.6334 60.1835 29.661 60.2523C29.6887 60.3211 29.6949 60.3966 29.6788 60.469C29.6628 60.5414 29.6253 60.6072 29.5712 60.6579C29.5171 60.7086 29.4489 60.7418 29.3757 60.7531L29.3682 60.7542C29.3627 60.755 29.3581 60.7558 29.3527 60.7566C29.5152 61.1444 29.7432 61.5014 30.0267 61.812C30.377 62.1878 30.8004 62.4882 31.2709 62.6946C31.7414 62.9011 32.2491 63.0092 32.7629 63.0125H32.7636C32.9031 63.6186 33.1052 64.2085 33.3666 64.7728H35.5206C35.5283 64.7488 35.5353 64.7241 35.5422 64.7002C35.3429 64.7127 35.1427 64.7008 34.9462 64.6647C35.106 64.4686 35.2658 64.2709 35.4257 64.0748C35.4292 64.0712 35.4326 64.0673 35.4357 64.0632C35.5168 63.9629 35.5986 63.8633 35.6797 63.7629L35.6797 63.7628C35.684 63.4552 35.6487 63.1482 35.5747 62.8496L35.5746 62.8496Z" fill="#F2F2F2"/>
<path d="M54.4254 62.8496C54.481 62.8521 54.536 62.8375 54.583 62.8078C54.63 62.778 54.6667 62.7345 54.6881 62.6832C54.7096 62.6319 54.7147 62.5752 54.7029 62.5209C54.6911 62.4665 54.6628 62.4171 54.622 62.3794C54.6152 62.3522 54.6103 62.3327 54.6034 62.3055C54.6059 62.2996 54.6083 62.2937 54.6108 62.2878C54.6668 62.1555 54.7606 62.0428 54.8804 61.9637C55.0002 61.8847 55.1407 61.8428 55.2843 61.8433C55.4279 61.8438 55.5681 61.8868 55.6873 61.9667C55.8066 62.0467 55.8995 62.1601 55.9545 62.2927C56.1743 62.8221 56.4541 63.3523 56.523 63.9119C56.5533 64.1593 56.5405 64.4101 56.4852 64.6531C57.0013 63.5271 57.2694 62.3033 57.2711 61.0646C57.2712 60.7538 57.254 60.4432 57.2194 60.1343C57.1908 59.8811 57.1512 59.6296 57.1005 59.38C56.8238 58.0255 56.2298 56.756 55.3672 55.6757C54.9498 55.4479 54.6121 55.0976 54.3999 54.672C54.323 54.5191 54.2686 54.3558 54.2385 54.1872C54.2856 54.1934 54.3335 54.1972 54.3806 54.2003C54.3952 54.2011 54.4107 54.2019 54.4253 54.2026L54.4309 54.2029C54.4826 54.2052 54.534 54.1925 54.5787 54.1663C54.6234 54.1402 54.6596 54.1016 54.6829 54.0554C54.7062 54.0091 54.7157 53.9571 54.7101 53.9056C54.7046 53.8541 54.6842 53.8053 54.6516 53.765C54.6313 53.74 54.6109 53.715 54.5906 53.69C54.5597 53.6514 54.528 53.6136 54.4971 53.575C54.4936 53.5713 54.4902 53.5674 54.4871 53.5634C54.4516 53.5194 54.4161 53.4761 54.3806 53.4321C54.4454 53.3315 54.5326 53.2472 54.6353 53.1858C54.9913 52.9774 55.4823 53.1218 55.7394 53.4437C55.9972 53.7657 56.0459 54.2173 55.9563 54.6195C55.8683 54.9618 55.7226 55.2866 55.5255 55.58C55.5448 55.6047 55.5649 55.6286 55.5842 55.6533C55.937 56.107 56.2445 56.5942 56.5023 57.1079C56.4396 56.5324 56.5145 55.9503 56.7206 55.4094C56.9296 54.9052 57.3213 54.4807 57.6662 54.0449C58.0805 53.5214 58.9301 53.7499 59.0031 54.4134C59.0038 54.4199 59.0045 54.4263 59.0051 54.4327C58.9539 54.4616 58.9038 54.4923 58.8547 54.5247C58.7931 54.5659 58.7453 54.6248 58.7177 54.6936C58.69 54.7624 58.6838 54.8379 58.6999 54.9103C58.7159 54.9826 58.7534 55.0485 58.8075 55.0992C58.8616 55.1499 58.9298 55.183 59.003 55.1943L59.0105 55.1955C58.9923 55.3801 58.96 55.5631 58.914 55.7429C58.7808 56.2447 58.5453 56.7136 58.2223 57.1201C57.8993 57.5266 57.4959 57.8621 57.0372 58.1054C57.0071 58.1208 56.9777 58.1362 56.9476 58.1509C57.2066 58.8849 57.3691 59.6495 57.4309 60.4254C57.4659 60.8831 57.4639 61.343 57.4248 61.8004L57.4271 61.7842C57.5259 61.2755 57.7972 60.8166 58.1953 60.4848C58.7864 59.9992 59.6216 59.8204 60.2594 59.43C60.3272 59.3865 60.406 59.3633 60.4865 59.3631C60.5671 59.3629 60.646 59.3857 60.714 59.4289C60.782 59.4721 60.8362 59.5338 60.8703 59.6068C60.9043 59.6798 60.9168 59.761 60.9062 59.8409C60.9054 59.8465 60.9045 59.8522 60.9036 59.8579C60.8085 59.8966 60.716 59.9412 60.6264 59.9915C60.5752 60.0204 60.5251 60.051 60.476 60.0835C60.4144 60.1247 60.3666 60.1835 60.339 60.2523C60.3113 60.3211 60.3051 60.3966 60.3212 60.469C60.3372 60.5414 60.3747 60.6072 60.4288 60.6579C60.4829 60.7086 60.5511 60.7418 60.6243 60.7531L60.6319 60.7542C60.6373 60.755 60.6419 60.7558 60.6473 60.7566C60.4848 61.1444 60.2568 61.5014 59.9733 61.812C59.623 62.1878 59.1996 62.4882 58.7291 62.6946C58.2586 62.9011 57.7509 63.0092 57.2371 63.0125H57.2364C57.0969 63.6186 56.8948 64.2085 56.6334 64.7728H54.4794C54.4717 64.7488 54.4647 64.7241 54.4578 64.7002C54.6571 64.7127 54.8573 64.7008 55.0538 64.6647C54.894 64.4686 54.7342 64.2709 54.5743 64.0748C54.5708 64.0712 54.5674 64.0673 54.5643 64.0632C54.4832 63.9629 54.4014 63.8633 54.3203 63.7629L54.3203 63.7628C54.316 63.4552 54.3513 63.1482 54.4254 62.8496Z" fill="#F2F2F2"/>
<path d="M36.2603 63.6275L36.8901 63.8959L38.2248 61.5947L37.2954 61.1987L36.2603 63.6275Z" fill="#A0616A"/>
<path d="M41.4641 64.2234L42.1485 64.2233L42.4742 61.5831L41.4639 61.5832L41.4641 64.2234Z" fill="#A0616A"/>
<path d="M41.4399 64.9375L43.5448 64.9374V64.9108C43.5448 64.6935 43.4585 64.4851 43.3049 64.3315C43.1512 64.1778 42.9428 64.0915 42.7256 64.0915L42.341 63.7998L41.6237 64.0915L41.4399 64.0915L41.4399 64.9375Z" fill="#2F2E41"/>
<path d="M35.8775 64.0846L37.8139 64.9098L37.8243 64.8853C37.9095 64.6854 37.9118 64.4599 37.8307 64.2583C37.7496 64.0567 37.5917 63.8956 37.3918 63.8104L37.1524 63.3913L36.3781 63.3784L36.2091 63.3064L35.8775 64.0846Z" fill="#2F2E41"/>
<path d="M42.1355 48.5977L43.1758 54.9321L42.8927 55.876L43.2642 56.5446L42.7186 62.4157L42.9401 62.9032L42.3213 63.2848H41.0623L40.9955 57.9697L40.6845 57.1893V56.7592L40.0513 53.5181L39.9838 57.5431L39.7817 57.933L37.9709 62.6731H36.5591L36.6683 61.8319C36.4154 61.7038 37.0481 61.3295 37.1089 61.0526L36.901 60.5849L37.1089 59.7014L37.5877 57.2443L37.0985 54.3309L37.2737 52.4557L37.1825 51.8142L37.1894 51.6068C37.1894 51.6068 37.4307 51.5137 37.2003 51.2813C36.8812 49.4727 37.2737 49.0801 37.2737 49.0801L38.8446 48.1608L42.1355 48.5977Z" fill="#2F2E41"/>
<path d="M39.6021 40.2558C40.3901 40.2558 41.0288 39.617 41.0288 38.8291C41.0288 38.0411 40.3901 37.4023 39.6021 37.4023C38.8142 37.4023 38.1754 38.0411 38.1754 38.8291C38.1754 39.617 38.8142 40.2558 39.6021 40.2558Z" fill="#A0616A"/>
<path d="M37.8134 36.0922C37.8201 36.174 37.8088 36.2562 37.7803 36.3332C37.7518 36.4102 37.7067 36.48 37.6483 36.5376C37.5899 36.5953 37.5196 36.6395 37.4423 36.667C37.365 36.6946 37.2826 36.7049 37.2009 36.6971L36.3719 38.5119L35.8217 37.6331L36.6933 36.0445C36.7154 35.9081 36.7868 35.7845 36.8939 35.6972C37.001 35.6099 37.1365 35.5649 37.2745 35.5708C37.4126 35.5767 37.5437 35.633 37.643 35.7291C37.7423 35.8252 37.8029 35.9544 37.8134 36.0922Z" fill="#A0616A"/>
<path d="M42.229 48.7342C42.232 48.7556 42.2297 48.7774 42.2224 48.7977C42.2152 48.818 42.2031 48.8363 42.1873 48.851C42.1714 48.8657 42.1523 48.8763 42.1314 48.882C42.1106 48.8876 42.0887 48.8882 42.0676 48.8836C41.3206 48.7222 38.238 49.1096 37.217 50.1501C37.1977 50.17 37.1727 50.1835 37.1455 50.1887C37.1182 50.1939 37.0901 50.1905 37.0648 50.1791C37.0395 50.1677 37.0183 50.1488 37.0042 50.1249C36.9901 50.101 36.9836 50.0734 36.9858 50.0457C37.0038 49.822 37.3289 48.81 37.3289 48.81L37.428 48.1794C37.4302 48.1647 37.4302 48.1498 37.428 48.1351L37.3371 47.6133C37.3322 47.5861 37.3191 47.5609 37.2996 47.5413L37.2688 47.5105C37.2436 47.4852 37.2294 47.4509 37.2294 47.4151C37.2294 47.3794 37.2436 47.3451 37.2688 47.3198L37.3882 47.2012C37.4027 47.1864 37.4136 47.1685 37.4202 47.1488C37.4269 47.1292 37.429 47.1084 37.4265 47.0878L37.2681 45.9166C37.2673 45.9144 37.2673 45.9114 37.2666 45.9091L36.5669 42.214C36.5615 42.1848 36.5658 42.1546 36.5792 42.1282C36.5927 42.1017 36.6145 42.0804 36.6412 42.0676L37.8304 41.4993C37.8427 41.4935 37.8541 41.4859 37.8642 41.4767L38.6945 40.7065C38.7192 40.684 38.7512 40.6713 38.7846 40.6704L40.2771 40.6592C40.2978 40.6592 40.3182 40.6639 40.3368 40.673C40.3554 40.6821 40.3717 40.6954 40.3844 40.7117L40.8386 41.3026C40.8548 41.3234 40.8767 41.3391 40.9017 41.3476L41.2095 41.452L42.0984 41.7538L42.1397 41.768C42.1652 41.7768 42.1875 41.7932 42.2035 41.8149C42.2196 41.8366 42.2287 41.8627 42.2298 41.8896C42.2304 41.8936 42.2306 41.8976 42.2305 41.9017L42.0083 46.5007C42.0076 46.521 42.0112 46.5412 42.0188 46.56L42.1254 46.8085C42.136 46.8337 42.1388 46.8616 42.1333 46.8884C42.1278 46.9152 42.1143 46.9397 42.0946 46.9587C42.0631 46.9887 42.027 47.0232 42.0045 47.0488C41.9587 47.0991 42.0563 47.4977 42.0713 47.5555C42.0727 47.5604 42.0737 47.5655 42.0743 47.5705L42.1292 47.9827C42.1323 48.0069 42.1288 48.0315 42.119 48.0539C42.1093 48.0762 42.0935 48.0955 42.0736 48.1096C42.0584 48.1204 42.0457 48.1343 42.0361 48.1503C42.0266 48.1663 42.0205 48.1841 42.0183 48.2026C42.016 48.2211 42.0176 48.2399 42.023 48.2577C42.0284 48.2756 42.0375 48.2921 42.0496 48.3063L42.1697 48.4482C42.1861 48.4682 42.1967 48.4923 42.2005 48.518L42.229 48.7342Z" fill="#3770FF"/>
<path d="M39.2371 40.1859C39.231 40.1725 39.225 40.159 39.2189 40.1455C39.2212 40.1456 39.2236 40.1459 39.2259 40.146L39.2371 40.1859Z" fill="#2F2E41"/>
<path d="M44.317 48.2649C44.324 48.1831 44.3129 48.1008 44.2846 48.0237C44.2563 47.9467 44.2114 47.8768 44.1532 47.819C44.0949 47.7612 44.0247 47.7168 43.9474 47.689C43.8702 47.6613 43.7878 47.6508 43.7061 47.6584L42.8818 45.8414L42.3294 46.7188L43.1968 48.3097C43.2186 48.4462 43.2897 48.5699 43.3966 48.6575C43.5035 48.745 43.6388 48.7904 43.7768 48.7848C43.9149 48.7793 44.0462 48.7233 44.1457 48.6275C44.2453 48.5317 44.3063 48.4026 44.317 48.2649Z" fill="#A0616A"/>
<path d="M43.1997 46.3573L43.1539 46.4429L42.6712 47.3453L42.6036 47.4714L42.1321 46.822L40.5849 44.6914L40.8048 43.3551L41.2095 41.6809L41.8093 41.6464L42.2298 41.8183C42.4088 41.8974 42.5557 42.035 42.6463 42.2085C42.7369 42.3821 42.7658 42.5813 42.7282 42.7734L42.3559 44.6801L43.1997 46.3573Z" fill="#3770FF"/>
<path d="M40.8443 37.5453C40.8229 37.4268 40.7752 37.3146 40.7046 37.217C40.669 37.1747 40.625 37.1404 40.5753 37.1164C40.5255 37.0923 40.4713 37.079 40.4161 37.0773C40.3609 37.0756 40.306 37.0856 40.2549 37.1066C40.2038 37.1276 40.1577 37.1592 40.1197 37.1992C40.142 37.1343 40.1485 37.0651 40.1386 36.9972C40.0344 37.0472 39.9229 37.0804 39.8084 37.0955L40.0615 36.8311L38.8013 36.9469C38.6712 36.9589 38.5306 36.9758 38.435 37.0746C38.3395 37.1734 38.3342 37.3843 38.455 37.4394C38.2171 37.3498 37.9439 37.4798 37.787 37.6977C37.63 37.9156 37.5722 38.2029 37.5616 38.4817C37.5479 38.8432 37.6152 39.2281 37.8359 39.4942C37.9802 39.6683 38.1769 39.7768 38.3366 39.9334L38.3414 39.9381C38.5163 40.1175 38.7355 40.2474 38.9769 40.3146C39.2182 40.3818 39.473 40.384 39.7155 40.3209C39.7427 40.3134 39.7698 40.3051 39.7969 40.2973C39.9327 40.3588 40.1019 40.2748 40.1876 40.1382C40.279 39.9926 40.2971 39.8062 40.3009 39.6287C40.306 39.3966 40.2917 39.1644 40.2582 38.9347C40.2204 38.6759 40.1863 38.3446 40.3912 38.2146C40.5508 38.1135 40.749 38.2133 40.9096 38.3124C40.925 38.0549 40.903 37.7965 40.8443 37.5453Z" fill="#2F2E41"/>
<path d="M37.802 44.1501L36.8513 44.0815L35.2014 42.0614L33.9767 40.306L34.2587 39.5923L35.592 37.6823L35.5782 37.5173L35.7257 37.4907L35.7283 37.2921L35.8508 37.3115L36.1787 36.8416L36.9295 37.4422L36.5049 38.6894L36.479 38.9437L36.3322 39.1969L36.404 39.5443L36.1232 39.8107L35.988 40.2078C36.5712 40.5913 37.1243 41.1651 37.6635 41.8833L37.802 44.1501Z" fill="#3770FF"/>
<path d="M50.758 46.3469L50.6549 47.3026L50.7156 48.5559L47.9396 48.2261L47.6787 46.3469L48.0111 46.3502L50.758 46.3469Z" fill="#FFB6B6"/>
<path d="M48.3409 43.2059L49.0005 42.8101L49.3168 42.322L50.2928 42.4722L51.4858 43.2719L51.4741 45.0858L50.7344 46.9671L47.6342 46.5713L47.5164 45.9077C47.5164 45.9077 46.6589 44.756 47.5823 44.0964L48.3409 43.2059Z" fill="#3770FF"/>
<path d="M44.3819 37.8198C44.3506 37.8864 44.3344 37.9591 44.3342 38.0327C44.3341 38.1063 44.3501 38.1791 44.3811 38.2458C44.4122 38.3126 44.4575 38.3717 44.5138 38.4191C44.5702 38.4664 44.6362 38.5009 44.7073 38.5199L46.855 42.5722L47.7218 41.9031L45.3382 38.1303C45.3623 38.0087 45.341 37.8825 45.2783 37.7756C45.2156 37.6687 45.1158 37.5885 44.9979 37.5503C44.8801 37.512 44.7522 37.5183 44.6387 37.568C44.5252 37.6176 44.4338 37.7072 44.3819 37.8198Z" fill="#FFB6B6"/>
<path d="M47.9048 43.9415C47.9048 43.9415 47.7058 44.118 47.4228 43.6307C47.1962 43.2405 46.0662 41.4934 45.9062 40.8877C45.8184 40.8902 45.7324 40.8634 45.6615 40.8115C45.5906 40.7597 45.539 40.6858 45.5148 40.6014L46.7286 40.1302C46.9924 40.2622 46.9192 40.445 46.8523 40.5396L47.3043 41.2177L48.808 42.9051L48.0509 43.8165L47.9048 43.9415Z" fill="#3770FF"/>
<path d="M52.1978 63.6991H51.5909L51.302 61.3582H52.1978V63.6991Z" fill="#FFB6B6"/>
<path d="M52.5181 64.7506H52.0829L52.0052 64.3397L51.8062 64.7506H50.6519C50.5965 64.7506 50.5426 64.7329 50.4981 64.7001C50.4535 64.6673 50.4206 64.6211 50.4041 64.5683C50.3876 64.5155 50.3885 64.4588 50.4065 64.4065C50.4246 64.3542 50.4589 64.309 50.5044 64.2775L51.4263 63.6409V63.2255L52.3959 63.2833L52.5181 64.7506Z" fill="#2F2E41"/>
<path d="M48.7887 63.6991H48.1818L47.8929 61.3582H48.7887V63.6991Z" fill="#FFB6B6"/>
<path d="M49.109 64.7506H48.6738L48.5961 64.3397L48.3971 64.7506H47.2427C47.1874 64.7506 47.1335 64.7329 47.089 64.7001C47.0444 64.6673 47.0115 64.6211 46.995 64.5683C46.9785 64.5155 46.9794 64.4588 46.9974 64.4065C47.0155 64.3542 47.0498 64.309 47.0953 64.2775L48.0171 63.6409V63.2255L48.9867 63.2833L49.109 64.7506Z" fill="#2F2E41"/>
<path d="M52.4597 61.6803H52.4531L52.3363 57.874C52.4119 57.7283 52.4502 57.5662 52.4479 57.4021C52.4457 57.238 52.4028 57.077 52.3233 56.9334L52.3066 56.9032L52.3499 56.7023C52.4056 56.4443 52.38 56.1754 52.2768 55.9324L52.1679 52.3818C52.5569 49.8606 50.703 48.2164 50.703 48.2164H47.9257L47.7273 48.8983L47.515 49.0787L47.5954 49.3516L47.3648 49.6793L47.3295 50.265C46.9353 54.1052 47.0069 57.8474 47.6323 61.473L47.6153 61.4816C47.5829 61.4996 47.5588 61.5294 47.5478 61.5648C47.5369 61.6002 47.54 61.6384 47.5565 61.6716C47.5853 61.7553 47.6586 61.806 47.72 61.7848L49.1867 61.7338C49.219 61.7158 49.2432 61.686 49.2541 61.6506C49.2651 61.6152 49.262 61.577 49.2455 61.5438C49.2166 61.4601 49.1434 61.4094 49.082 61.4306L48.9823 61.481L49.1949 57.8081L49.1713 57.1372L49.22 56.3761L49.4448 52.9526L50.2958 57.1625L51.165 61.7227C51.141 61.7444 51.1242 61.7728 51.1167 61.8043C51.1093 61.8358 51.1115 61.8688 51.1232 61.8989C51.1349 61.9291 51.1554 61.955 51.1821 61.9732C51.2088 61.9915 51.2405 62.0012 51.2728 62.0011H52.4597C52.5022 62.0011 52.543 61.9842 52.5731 61.9541C52.6032 61.924 52.6201 61.8832 52.6201 61.8407C52.6201 61.7981 52.6032 61.7574 52.5731 61.7273C52.543 61.6972 52.5022 61.6803 52.4597 61.6803Z" fill="#2F2E41"/>
<path d="M55.5012 49.7826C55.5305 49.715 55.5447 49.6419 55.5426 49.5683C55.5406 49.4947 55.5225 49.4225 55.4895 49.3567C55.4565 49.2909 55.4096 49.2331 55.3518 49.1874C55.2941 49.1417 55.2271 49.1092 55.1555 49.0922L52.8905 45.1044L52.0435 45.7984L54.5362 49.5001C54.5157 49.6223 54.5407 49.7478 54.6065 49.8529C54.6723 49.9579 54.7743 50.0351 54.8933 50.0699C55.0122 50.1048 55.1398 50.0947 55.2518 50.0418C55.3639 49.9888 55.4526 49.8966 55.5012 49.7826Z" fill="#FFB6B6"/>
<path d="M51.297 43.2691C51.297 43.2691 51.4908 43.0869 51.7879 43.5658C52.0258 43.9492 53.7104 46.1599 53.888 46.7606C53.9756 46.7555 54.0625 46.7798 54.1348 46.8296C54.2072 46.8793 54.2609 46.9517 54.2876 47.0354L53.0881 47.5417C52.8205 47.4175 52.6958 47.1853 52.7599 47.0888L52.2883 46.4242L50.52 44.3827L51.1546 43.3984L51.297 43.2691Z" fill="#3770FF"/>
<path d="M60.2613 64.8835C60.2614 64.8988 60.2584 64.914 60.2526 64.9281C60.2467 64.9423 60.2381 64.9552 60.2273 64.966C60.2164 64.9768 60.2036 64.9854 60.1894 64.9913C60.1752 64.9971 60.16 65.0001 60.1447 65.0001H29.2103C29.1793 65.0001 29.1497 64.9878 29.1278 64.9659C29.1059 64.944 29.0937 64.9144 29.0937 64.8835C29.0937 64.8525 29.1059 64.8229 29.1278 64.801C29.1497 64.7791 29.1793 64.7668 29.2103 64.7668H60.1447C60.16 64.7668 60.1752 64.7698 60.1894 64.7756C60.2036 64.7815 60.2164 64.7901 60.2273 64.8009C60.2381 64.8117 60.2467 64.8246 60.2526 64.8388C60.2584 64.8529 60.2614 64.8681 60.2613 64.8835Z" fill="#CCCCCC"/>
<path d="M48.8424 39.6897C48.4386 40.4857 48.7024 41.4076 49.4518 41.8925C50.2621 42.4167 51.3142 42.302 51.6545 41.2831C52.0335 40.1485 51.7222 39.6618 51.0452 39.0803C50.2519 38.3989 49.2788 38.8297 48.8424 39.6897Z" fill="#2F2E41"/>
<path d="M50.8303 41.4627C50.6247 41.7321 50.3206 41.9088 49.9848 41.954C49.6491 41.9993 49.309 41.9094 49.0394 41.7042C48.7699 41.4989 48.5928 41.195 48.5471 40.8593C48.5014 40.5235 48.5909 40.1834 48.7958 39.9136L48.8069 39.899C49.0164 39.6368 49.3204 39.4675 49.6536 39.4276C49.9867 39.3876 50.3222 39.4802 50.5877 39.6854C50.8532 39.8905 51.0274 40.1919 51.0727 40.5243C51.1181 40.8568 51.0309 41.1937 50.83 41.4625L50.8303 41.4627Z" fill="#FFB6B6"/>
<path d="M48.4511 39.5608C48.6589 39.7585 48.9122 39.902 49.1886 39.9787C49.244 39.9146 49.3096 39.8602 49.3829 39.8176C49.3478 39.8906 49.3238 39.9684 49.3116 40.0484C49.4349 40.3042 49.9384 40.4881 50.4196 40.6762L51.0569 39.5514L50.2133 39.0733C49.5354 38.6047 48.7374 38.8047 48.4511 39.5608Z" fill="#2F2E41"/>
<path d="M51.5377 39.0817C51.5992 39.0591 51.6655 39.0521 51.7303 39.0616C51.7952 39.0711 51.8567 39.0967 51.9092 39.136C52.0119 39.2141 52.0949 39.3151 52.1517 39.4309C52.2549 39.6184 52.329 39.8204 52.3716 40.0302C52.4079 40.2116 52.4018 40.431 52.239 40.5256C52.1032 40.6046 51.909 40.5549 51.7841 40.4495C51.6684 40.3388 51.5806 40.2023 51.528 40.0511C51.4764 39.901 51.3997 39.7608 51.3013 39.6363L51.4137 39.6888C51.3782 39.5808 51.3616 39.4676 51.3648 39.354C51.3673 39.2974 51.3846 39.2426 51.415 39.1948C51.4453 39.1471 51.4876 39.1081 51.5377 39.0817Z" fill="#2F2E41"/>
<path d="M50.0786 39.2291L50.9836 39.742C51.1048 39.8106 51.2113 39.9025 51.297 40.0123C51.3827 40.1221 51.4459 40.2477 51.483 40.382C51.5201 40.5162 51.5305 40.6565 51.5134 40.7947C51.4963 40.9329 51.4522 41.0665 51.3836 41.1876C51.1815 41.5441 50.8539 41.8124 50.4646 41.9401C50.0754 42.0679 49.6524 42.0459 49.2785 41.8785L50.1056 41.1484L48.9836 41.72L48.7441 41.5843C49.9473 41.3655 50.1794 40.4216 50.0786 39.2291Z" fill="#2F2E41"/>
<path d="M41.3382 25L38.3606 29.9574L41.3483 31.7213L41.3382 25Z" fill="#8C8C8C"/>
<path d="M44.3288 29.9574L41.3382 25L41.3483 31.7213L44.3288 29.9574Z" fill="#333333"/>
<path d="M38.3606 29.9574L41.3447 28.5973L41.3483 31.7214L38.3606 29.9574Z" fill="#383838"/>
<path d="M44.3288 29.9574L41.3447 28.5973L41.3511 31.6072L44.3288 29.9574Z" fill="#141414"/>
<path d="M44.3215 30.5251L41.341 32.289V34.7221L44.3215 30.5251Z" fill="#333333"/>
<path d="M38.3604 30.5251L41.341 32.289V34.7221L38.3604 30.5251Z" fill="#8C8C8C"/>
</g>
<defs>
<clipPath id="clip0_1_171">
<rect width="31.8223" height="40" fill="white" transform="translate(29.0889 25)"/>
</clipPath>
</defs>
</svg>
