<svg width="150" height="113" viewBox="0 0 150 113" fill="none" xmlns="http://www.w3.org/2000/svg">
<path d="M76 30L75.3823 30.4254L76 30ZM86 89.5L86.5765 89.0203L86 89.5ZM149.5 108.5L141.988 104.191L142.012 112.851L149.5 108.5ZM1 1C0.958911 1.74887 0.958898 1.74887 0.958887 1.74887C0.958886 1.74887 0.958877 1.74887 0.958875 1.74887C0.95887 1.74887 0.958874 1.74887 0.958885 1.74887C0.958908 1.74887 0.958962 1.74888 0.959048 1.74888C0.959219 1.74889 0.959516 1.74891 0.959939 1.74893C0.960783 1.74898 0.962129 1.74905 0.963975 1.74916C0.967665 1.74936 0.973351 1.74969 0.981013 1.75013C0.996336 1.75101 1.01956 1.75236 1.05053 1.75422C1.11246 1.75795 1.20535 1.7637 1.32791 1.77175C1.57303 1.78784 1.9368 1.81309 2.40885 1.8496L2.52453 0.354068C2.04642 0.317087 1.67684 0.291422 1.42616 0.274967C1.30081 0.26674 1.20519 0.260815 1.14058 0.256929C1.10827 0.254986 1.08372 0.253553 1.06709 0.252597C1.05877 0.252119 1.05243 0.25176 1.04809 0.251516C1.04592 0.251395 1.04425 0.251301 1.04308 0.251237C1.0425 0.251204 1.04204 0.251179 1.04171 0.25116C1.04154 0.251151 1.04141 0.251144 1.0413 0.251138C1.04125 0.251135 1.04121 0.251133 1.04117 0.251131C1.04115 0.25113 1.04113 0.251129 1.04112 0.251128C1.04111 0.251127 1.04109 0.251126 1 1ZM5.31127 2.10498C6.18227 2.18987 7.16835 2.2928 8.25514 2.41669L8.42503 0.92634C7.32971 0.801477 6.33547 0.697694 5.45677 0.612057L5.31127 2.10498ZM11.1574 2.76968C12.0838 2.88933 13.0594 3.02193 14.0782 3.16871L14.292 1.68403C13.2657 1.53617 12.2829 1.40258 11.3496 1.28204L11.1574 2.76968ZM16.9952 3.6107C17.9374 3.76051 18.9075 3.92166 19.9018 4.09491L20.1593 2.61717C19.1574 2.4426 18.1799 2.28024 17.2308 2.12932L16.9952 3.6107ZM22.7927 4.62111C23.738 4.80062 24.7004 4.9908 25.6769 5.19221L25.9799 3.72313C24.9954 3.52007 24.0253 3.32837 23.0726 3.14745L22.7927 4.62111ZM28.5512 5.80947C29.4953 6.02041 30.4495 6.24183 31.4114 6.47422L31.7637 5.01617C30.7931 4.78168 29.8304 4.55831 28.8782 4.34556L28.5512 5.80947ZM34.2594 7.18953C35.1999 7.43499 36.1454 7.69109 37.0936 7.95826L37.5004 6.51449C36.5425 6.24458 35.5877 5.98595 34.6381 5.73814L34.2594 7.18953ZM39.9118 8.7836C40.8451 9.06757 41.7789 9.36259 42.7112 9.66908L43.1796 8.2441C42.2363 7.934 41.2919 7.63563 40.3484 7.34855L39.9118 8.7836ZM45.4884 10.6187C46.4096 10.9462 47.3272 11.2854 48.2393 11.6368L48.7784 10.237C47.8537 9.88081 46.9239 9.53706 45.9909 9.20534L45.4884 10.6187ZM50.9592 12.7283C51.862 13.1059 52.7572 13.496 53.6426 13.899L54.264 12.5338C53.3638 12.124 52.4544 11.7277 51.5378 11.3445L50.9592 12.7283ZM56.2847 15.1558C57.1623 15.5922 58.0278 16.0423 58.8789 16.5065L59.5971 15.1897C58.7286 14.7159 57.8463 14.2571 56.9525 13.8127L56.2847 15.1558ZM61.4142 17.9583C62.2539 18.4634 63.0762 18.9836 63.8788 19.5194L64.7116 18.2718C63.8884 17.7223 63.0462 17.1895 62.1873 16.6729L61.4142 17.9583ZM66.2588 21.1986C67.0424 21.7836 67.8026 22.3855 68.537 23.0048L69.5039 21.858C68.7458 21.2187 67.9623 20.5985 67.1562 19.9966L66.2588 21.1986ZM70.6932 24.9461C71.3941 25.6216 72.065 26.3159 72.7032 27.0295L73.8213 26.0295C73.1572 25.287 72.4604 24.566 71.734 23.866L70.6932 24.9461ZM74.5398 29.2585C74.8299 29.6423 75.1109 30.0312 75.3823 30.4254L76.6177 29.5746C76.3334 29.1619 76.0395 28.755 75.7364 28.354L74.5398 29.2585ZM75.3823 30.4254C75.6742 30.8492 75.9504 31.274 76.2116 31.6999L77.4902 30.9155C77.2151 30.4671 76.9245 30.0201 76.6177 29.5746L75.3823 30.4254ZM77.6465 34.3526C78.084 35.2802 78.4594 36.2128 78.7801 37.1498L80.1993 36.6642C79.8612 35.676 79.465 34.6918 79.0032 33.7127L77.6465 34.3526ZM79.6039 40.0567C79.8294 41.0459 80.0031 42.0404 80.1332 43.0397L81.6206 42.8461C81.4849 41.8036 81.3032 40.7623 81.0665 39.7234L79.6039 40.0567ZM80.401 46.0704C80.4514 47.0847 80.4657 48.1031 80.452 49.1251L81.9519 49.1452C81.9659 48.096 81.9514 47.0458 81.8992 45.9959L80.401 46.0704ZM80.3357 52.1912C80.2748 53.2131 80.1944 54.2372 80.1026 55.2633L81.5967 55.3969C81.6893 54.3603 81.771 53.321 81.833 52.2805L80.3357 52.1912ZM79.8023 58.3418C79.6964 59.3693 79.5871 60.4026 79.4837 61.4309L80.9762 61.581C81.0794 60.5546 81.1879 59.5291 81.2944 58.4956L79.8023 58.3418ZM79.1966 64.5351C79.1116 65.5769 79.0409 66.6183 78.9935 67.6578L80.492 67.7261C80.5383 66.7086 80.6077 65.6856 80.6917 64.6571L79.1966 64.5351ZM78.9307 70.8014C78.9398 71.8554 78.9826 72.9071 79.0688 73.9552L80.5637 73.8323C80.4809 72.8253 80.4395 71.8106 80.4306 70.7884L78.9307 70.8014ZM79.4694 77.1008C79.6522 78.1392 79.8881 79.1727 80.1866 80.2L81.627 79.7814C81.3447 78.8098 81.1208 77.8294 80.9467 76.8407L79.4694 77.1008ZM81.2559 83.2053C81.664 84.1654 82.1364 85.1176 82.6809 86.0609L83.98 85.311C83.4663 84.4211 83.021 83.5234 82.6364 82.6185L81.2559 83.2053ZM84.4321 88.7208C84.746 89.1427 85.0762 89.5624 85.4235 89.9797L86.5765 89.0203C86.2464 88.6236 85.9331 88.2253 85.6357 87.8256L84.4321 88.7208ZM85.4235 89.9797C85.7607 90.3849 86.1099 90.7814 86.4705 91.1694L87.5693 90.1483C87.2268 89.7798 86.8957 89.4039 86.5765 89.0203L85.4235 89.9797ZM88.7431 93.3778C89.5265 94.0679 90.3479 94.7274 91.2025 95.3576L92.0928 94.1504C91.2709 93.5443 90.4835 92.9119 89.7347 92.2522L88.7431 93.3778ZM93.8049 97.1266C94.6844 97.6786 95.5907 98.205 96.5197 98.7072L97.233 97.3876C96.3307 96.8999 95.4526 96.3897 94.6022 95.8561L93.8049 97.1266ZM99.3205 100.119C100.26 100.56 101.216 100.98 102.187 101.379L102.758 99.992C101.808 99.6014 100.874 99.1914 99.9585 98.7611L99.3205 100.119ZM105.105 102.505C106.081 102.858 107.067 103.192 108.061 103.509L108.517 102.08C107.54 101.769 106.572 101.441 105.615 101.094L105.105 102.505ZM111.048 104.406C112.05 104.688 113.056 104.954 114.062 105.205L114.424 103.749C113.432 103.502 112.442 103.24 111.455 102.962L111.048 104.406ZM117.095 105.915C118.116 106.139 119.134 106.348 120.145 106.543L120.429 105.07C119.43 104.878 118.425 104.671 117.417 104.45L117.095 105.915ZM123.206 107.096C124.241 107.271 125.266 107.431 126.275 107.579L126.492 106.095C125.493 105.949 124.48 105.79 123.456 105.617L123.206 107.096ZM129.36 107.998C130.415 108.13 131.448 108.248 132.454 108.354L132.611 106.862C131.614 106.757 130.591 106.64 129.546 106.509L129.36 107.998ZM135.543 108.65C136.622 108.744 137.659 108.823 138.646 108.89L138.748 107.394C137.77 107.327 136.742 107.249 135.672 107.156L135.543 108.65ZM141.739 109.072C142.883 109.128 143.925 109.168 144.849 109.196L144.894 107.696C143.979 107.669 142.946 107.63 141.813 107.574L141.739 109.072Z" fill="#808FA6"/>
</svg>
