<svg width="137" height="103" viewBox="0 0 137 103" fill="none" xmlns="http://www.w3.org/2000/svg">
<path d="M75.5 68.6361L76.1095 69.0731L75.5 68.6361ZM90.5 15.1361L90.9877 15.7059L90.5 15.1361ZM137 5.13612L129.705 0.468253L129.31 9.11948L137 5.13612ZM1 102.136C1.10068 102.879 1.1007 102.879 1.10072 102.879C1.10073 102.879 1.10075 102.879 1.10077 102.879C1.1008 102.879 1.10084 102.879 1.10089 102.879C1.10099 102.879 1.10113 102.879 1.10129 102.879C1.10162 102.879 1.10207 102.879 1.10265 102.879C1.10381 102.879 1.10547 102.879 1.10763 102.878C1.11195 102.878 1.11826 102.877 1.12655 102.876C1.14314 102.873 1.16762 102.87 1.19985 102.866C1.26431 102.856 1.35975 102.843 1.48487 102.825C1.7351 102.788 2.10409 102.733 2.58148 102.658L2.34836 101.176C1.87668 101.25 1.5132 101.305 1.26825 101.34C1.14577 101.358 1.05293 101.371 0.991007 101.38C0.960047 101.385 0.936819 101.388 0.921483 101.39C0.913815 101.391 0.908121 101.392 0.904419 101.392C0.902569 101.392 0.901216 101.393 0.900365 101.393C0.899939 101.393 0.899639 101.393 0.899464 101.393C0.899376 101.393 0.89932 101.393 0.899296 101.393C0.899283 101.393 0.899279 101.393 0.899282 101.393C0.899284 101.393 0.899292 101.393 0.899293 101.393C0.899304 101.393 0.899316 101.393 1 102.136ZM5.51585 102.166C6.39201 102.011 7.38307 101.829 8.47473 101.618L8.19055 100.145C7.10689 100.354 6.12347 100.535 5.25455 100.689L5.51585 102.166ZM11.3984 101.032C12.33 100.839 13.3109 100.629 14.3352 100.401L14.0099 98.9369C12.9926 99.1629 12.0185 99.3716 11.0934 99.5637L11.3984 101.032ZM17.2604 99.7303C18.2009 99.5077 19.1694 99.272 20.1619 99.0226L19.7964 97.5678C18.8108 97.8155 17.8491 98.0496 16.915 98.2706L17.2604 99.7303ZM23.0576 98.2733C24.0035 98.0213 24.9667 97.7576 25.9443 97.4818L25.537 96.0382C24.5667 96.3119 23.6106 96.5737 22.6715 96.8238L23.0576 98.2733ZM28.8202 96.647C29.7652 96.3648 30.7205 96.0716 31.6838 95.7671L31.2317 94.3369C30.2763 94.6389 29.3286 94.9297 28.391 95.2097L28.8202 96.647ZM34.532 94.8407C35.4705 94.5266 36.4144 94.2019 37.3614 93.8661L36.8602 92.4523C35.9219 92.785 34.9864 93.1069 34.056 93.4183L34.532 94.8407ZM40.1746 92.8392C41.1057 92.4892 42.0379 92.1284 42.9692 91.7567L42.4132 90.3636C41.4916 90.7314 40.5689 91.0885 39.6468 91.4351L40.1746 92.8392ZM45.7423 90.6153C46.6617 90.225 47.5784 89.8237 48.4903 89.4111L47.872 88.0444C46.9712 88.452 46.0652 88.8487 45.1562 89.2346L45.7423 90.6153ZM51.2093 88.1397C52.1115 87.7036 53.0072 87.2559 53.8944 86.7964L53.2045 85.4644C52.3301 85.9173 51.4468 86.3589 50.5565 86.7892L51.2093 88.1397ZM56.5402 85.3755C57.419 84.886 58.287 84.3842 59.1424 83.8697L58.3692 82.5843C57.5288 83.0898 56.6752 83.5834 55.8103 84.065L56.5402 85.3755ZM61.6939 82.2713C62.5399 81.719 63.3706 81.1531 64.1837 80.5734L63.313 79.352C62.5173 79.9193 61.7035 80.4736 60.8739 81.0153L61.6939 82.2713ZM66.6004 78.7675C67.3984 78.1417 68.1756 77.5008 68.9296 76.8446L67.9449 75.7131C67.2111 76.3517 66.4537 76.9763 65.6748 77.5871L66.6004 78.7675ZM71.1544 74.7957C71.8824 74.0848 72.5832 73.357 73.2539 72.612L72.139 71.6084C71.4909 72.3283 70.8126 73.0329 70.1065 73.7225L71.1544 74.7957ZM75.2031 70.2864C75.514 69.8866 75.8162 69.4822 76.1095 69.0731L74.8905 68.1991C74.6088 68.592 74.3181 68.9809 74.019 69.3656L75.2031 70.2864ZM76.1095 69.0731C76.3992 68.6691 76.6753 68.2628 76.9383 67.8545L75.6773 67.0421C75.4277 67.4296 75.1656 67.8153 74.8905 68.1991L76.1095 69.0731ZM78.4 65.3141C78.8517 64.4291 79.2501 63.5367 79.6016 62.6386L78.2048 62.0918C77.8706 62.9457 77.4923 63.7929 77.0639 64.6323L78.4 65.3141ZM80.5399 59.8667C80.8119 58.925 81.0404 57.9791 81.2326 57.0309L79.7625 56.7329C79.5777 57.6446 79.3587 58.5508 79.0988 59.4505L80.5399 59.8667ZM81.7102 54.1603C81.8378 53.1995 81.9358 52.2377 82.0116 51.2769L80.5163 51.159C80.4423 52.0971 80.3469 53.032 80.2232 53.9628L81.7102 54.1603ZM82.1797 48.3932C82.2184 47.4318 82.2421 46.4722 82.2581 45.5168L80.7583 45.4918C80.7425 46.4395 80.719 47.3867 80.681 48.3329L82.1797 48.3932ZM82.2901 42.6509C82.2979 41.6927 82.3051 40.7416 82.3194 39.7957L80.8195 39.7732C80.8052 40.7253 80.7979 41.6821 80.7901 42.6386L82.2901 42.6509ZM82.391 36.9553C82.4273 36.0039 82.4786 35.0619 82.5525 34.1301L81.0572 34.0115C80.9814 34.9679 80.929 35.9309 80.8921 36.8979L82.391 36.9553ZM82.8546 31.3321C82.9853 30.4008 83.1476 29.4827 83.3498 28.5789L81.886 28.2515C81.674 29.1994 81.5047 30.1576 81.3692 31.1237L82.8546 31.3321ZM84.089 25.8961C84.3793 25.0227 84.7174 24.1649 85.1116 23.3237L83.7533 22.6873C83.3327 23.5849 82.9731 24.4976 82.6656 25.423L84.089 25.8961ZM86.4387 20.9005C86.9201 20.1408 87.4588 19.3957 88.062 18.6664L86.9061 17.7104C86.2625 18.4886 85.6867 19.2849 85.1717 20.0977L86.4387 20.9005ZM89.9495 16.6438C90.2806 16.3278 90.6264 16.0151 90.9877 15.7059L90.0123 14.5663C89.6308 14.8929 89.2648 15.2237 88.9138 15.5588L89.9495 16.6438ZM90.9877 15.7059C91.3559 15.3908 91.7376 15.0851 92.1319 14.7886L91.2304 13.5897C90.8119 13.9044 90.4056 14.2298 90.0123 14.5663L90.9877 15.7059ZM94.5825 13.1531C95.4184 12.6566 96.2927 12.192 97.1991 11.7573L96.5505 10.4048C95.6076 10.857 94.6938 11.3424 93.8165 11.8635L94.5825 13.1531ZM99.9292 10.5725C100.846 10.2126 101.785 9.87863 102.741 9.56877L102.278 8.14185C101.296 8.46031 100.328 8.80443 99.3809 9.17625L99.9292 10.5725ZM105.612 8.72105C106.575 8.4628 107.548 8.22616 108.525 8.00942L108.201 6.54498C107.203 6.76612 106.209 7.00794 105.224 7.27229L105.612 8.72105ZM111.469 7.41698C112.461 7.23644 113.453 7.07457 114.437 6.92959L114.219 5.44559C113.218 5.59286 112.21 5.75744 111.2 5.9412L111.469 7.41698ZM117.418 6.53739C118.434 6.41905 119.436 6.31744 120.417 6.23043L120.284 4.7363C119.291 4.82444 118.275 4.92744 117.245 5.04746L117.418 6.53739ZM123.423 6.00265C124.464 5.9369 125.47 5.8867 126.432 5.84906L126.373 4.35021C125.4 4.38829 124.382 4.43908 123.329 4.50563L123.423 6.00265ZM129.446 5.76623C130.552 5.7487 131.564 5.74675 132.464 5.75384L132.476 4.25389C131.565 4.24671 130.541 4.24869 129.423 4.26642L129.446 5.76623Z" fill="#808FA6"/>
</svg>
