<svg width="162" height="85" viewBox="0 0 162 85" fill="none" xmlns="http://www.w3.org/2000/svg">
<path d="M56 12L55.6403 12.6581L56 12ZM101 67L101.379 66.3526L101 67ZM162 80.5L154.687 75.8605L154.326 84.5132L162 80.5ZM0 1C-0.00639266 1.74997 -0.00640316 1.74997 -0.00641174 1.74997C-0.00641205 1.74997 -0.00641872 1.74997 -0.00641934 1.74997C-0.00642057 1.74997 -0.00641415 1.74997 -0.00640008 1.74997C-0.00637193 1.74997 -0.00631317 1.74997 -0.00622384 1.74997C-0.00604519 1.74998 -0.00574428 1.74998 -0.00532142 1.74998C-0.00447571 1.74999 -0.00314226 1.75 -0.00132368 1.75002C0.00231347 1.75005 0.00789105 1.75011 0.015388 1.75019C0.0303819 1.75035 0.0530531 1.75061 0.0832329 1.751C0.143593 1.75177 0.233986 1.75307 0.353063 1.75514C0.591221 1.75928 0.9441 1.76651 1.40092 1.77888L1.44151 0.279427C0.979631 0.266924 0.621906 0.259583 0.37913 0.255364C0.257741 0.253254 0.165086 0.251924 0.102514 0.25112C0.0712279 0.250718 0.0474624 0.250447 0.031386 0.250275C0.0233479 0.25019 0.0172319 0.250129 0.0130594 0.250089C0.0109731 0.250069 0.00937261 0.250054 0.00826061 0.250044C0.00770462 0.250039 0.00727073 0.250035 0.0069593 0.250032C0.00680358 0.250031 0.00667848 0.25003 0.00658402 0.250029C0.0065368 0.250028 0.00649723 0.250028 0.00646534 0.250028C0.00644939 0.250028 0.00643122 0.250028 0.00642325 0.250027C0.00640699 0.250027 0.00639266 0.250027 0 1ZM4.26253 1.88219C5.1131 1.91977 6.07403 1.96789 7.12992 2.02944L7.21721 0.531981C6.15389 0.469994 5.18592 0.421526 4.32874 0.383655L4.26253 1.88219ZM9.98632 2.21498C10.8963 2.28011 11.8531 2.35429 12.8499 2.43877L12.9766 0.944133C11.9729 0.859065 11.0096 0.784378 10.0934 0.718811L9.98632 2.21498ZM15.7018 2.69948C16.63 2.79058 17.5839 2.89038 18.5592 2.9997L18.7263 1.50903C17.7438 1.39891 16.783 1.2984 15.8483 1.20666L15.7018 2.69948ZM21.3992 3.33853C22.3325 3.45676 23.2804 3.58375 24.2395 3.72015L24.4507 2.23509C23.4837 2.09757 22.5282 1.96956 21.5877 1.85042L21.3992 3.33853ZM27.075 4.1468C28.01 4.29541 28.952 4.45319 29.8981 4.62071L30.1596 3.14368C29.2045 2.97456 28.2537 2.81532 27.3104 2.66539L27.075 4.1468ZM32.7108 5.14619C33.6446 5.33006 34.5793 5.52383 35.5121 5.72803L35.8329 4.26273C34.8893 4.05616 33.9442 3.86025 33.0007 3.67445L32.7108 5.14619ZM38.298 6.37144C39.2257 6.59738 40.1486 6.83427 41.0638 7.08264L41.4567 5.63501C40.5282 5.38303 39.5926 5.14289 38.6529 4.91403L38.298 6.37144ZM43.8087 7.87043C44.7262 8.14882 45.6324 8.43972 46.5243 8.74368L47.0081 7.32388C46.0993 7.01412 45.1769 6.71805 44.2443 6.43505L43.8087 7.87043ZM49.2005 9.71321C50.0955 10.0579 50.9713 10.4173 51.8246 10.7919L52.4275 9.41842C51.5518 9.03395 50.6546 8.66587 49.7397 8.31346L49.2005 9.71321ZM54.3939 12.0025C54.8168 12.2167 55.2325 12.4352 55.6403 12.6581L56.3597 11.3419C55.9375 11.1111 55.508 10.8853 55.0715 10.6643L54.3939 12.0025ZM55.6403 12.6581C56.0817 12.8994 56.5137 13.1453 56.9367 13.3959L57.7011 12.1053C57.2632 11.8459 56.8162 11.5914 56.3597 11.3419L55.6403 12.6581ZM59.4233 14.9898C60.2473 15.5605 61.0341 16.1505 61.7871 16.758L62.729 15.5906C61.9479 14.9603 61.1318 14.3485 60.2774 13.7567L59.4233 14.9898ZM64.0213 18.7003C64.7493 19.3814 65.4435 20.0808 66.1076 20.7964L67.2071 19.7761C66.5199 19.0355 65.8009 18.3111 65.0461 17.6049L64.0213 18.7003ZM68.0471 23.0315C68.6741 23.8031 69.2734 24.5902 69.8493 25.3909L71.067 24.515C70.4752 23.6922 69.8581 22.8815 69.2113 22.0856L68.0471 23.0315ZM71.5221 27.8489C72.0611 28.684 72.5805 29.5307 73.0847 30.3872L74.3773 29.6262C73.864 28.7542 73.3338 27.8898 72.7825 27.0355L71.5221 27.8489ZM74.5583 32.9871C75.0373 33.862 75.5053 34.744 75.9671 35.6314L77.2977 34.939C76.8323 34.0446 76.3592 33.153 75.8741 32.2668L74.5583 32.9871ZM77.3366 38.3047C77.79 39.2001 78.2394 40.0941 78.6935 40.993L80.0323 40.3167C79.5806 39.4224 79.1282 38.5223 78.6748 37.627L77.3366 38.3047ZM80.0646 43.6825C80.5267 44.5771 80.9959 45.4702 81.4766 46.359L82.796 45.6454C82.3209 44.767 81.8563 43.8826 81.3973 42.9941L80.0646 43.6825ZM82.9558 49.0076C83.4619 49.8823 83.9841 50.7508 84.5266 51.6105L85.7951 50.81C85.2641 49.9685 84.7519 49.1166 84.2541 48.2564L82.9558 49.0076ZM86.2115 54.1491C86.792 54.979 87.3968 55.798 88.0303 56.6039L89.2096 55.6769C88.5946 54.8945 88.0063 54.098 87.4406 53.2893L86.2115 54.1491ZM89.9913 58.9466C90.6639 59.7001 91.3673 60.439 92.1053 61.161L93.1543 60.0888C92.4414 59.3914 91.7614 58.6771 91.1104 57.9478L89.9913 58.9466ZM94.3726 63.2283C95.1379 63.878 95.9375 64.5106 96.7744 65.1245L97.6615 63.9149C96.8536 63.3224 96.0819 62.7118 95.3433 62.0848L94.3726 63.2283ZM99.3032 66.8463C99.7335 67.118 100.173 67.3851 100.621 67.6474L101.379 66.3526C100.945 66.0988 100.52 65.8405 100.104 65.578L99.3032 66.8463ZM100.621 67.6474C101.076 67.9131 101.538 68.1734 102.009 68.4286L102.724 67.1102C102.267 66.8623 101.819 66.6098 101.379 66.3526L100.621 67.6474ZM104.862 69.8717C105.808 70.3185 106.778 70.7476 107.768 71.1598L108.345 69.7749C107.374 69.3711 106.426 68.9514 105.502 68.5153L104.862 69.8717ZM110.728 72.3209C111.713 72.6856 112.714 73.0354 113.726 73.371L114.198 71.9471C113.201 71.6166 112.217 71.2725 111.248 70.9141L110.728 72.3209ZM116.754 74.323C117.763 74.624 118.78 74.912 119.802 75.1876L120.193 73.7393C119.183 73.467 118.178 73.1826 117.183 72.8856L116.754 74.323ZM122.871 75.9752C123.898 76.2261 124.927 76.4653 125.954 76.6931L126.279 75.2287C125.261 75.003 124.243 74.7663 123.227 74.5181L122.871 75.9752ZM129.05 77.3473C130.091 77.557 131.127 77.7555 132.156 77.9435L132.425 76.468C131.405 76.2815 130.378 76.0846 129.346 75.8769L129.05 77.3473ZM135.274 78.4866C136.329 78.6613 137.371 78.8253 138.398 78.9791L138.62 77.4956C137.601 77.3429 136.566 77.1802 135.519 77.0068L135.274 78.4866ZM141.521 79.4235C142.593 79.5682 143.643 79.7018 144.663 79.825L144.843 78.3358C143.829 78.2134 142.787 78.0807 141.721 77.9369L141.521 79.4235ZM147.8 80.1821C148.896 80.2995 149.949 80.4044 150.95 80.4982L151.09 79.0047C150.095 78.9116 149.049 78.8073 147.959 78.6906L147.8 80.1821ZM154.094 80.7715C155.256 80.8646 156.314 80.9406 157.251 81.0023L157.35 79.5055C156.419 79.4443 155.368 79.3688 154.214 79.2763L154.094 80.7715Z" fill="#808FA6"/>
</svg>
