<svg width="152" height="50" viewBox="0 0 152 50" fill="none" xmlns="http://www.w3.org/2000/svg">
<path opacity="0.1" d="M48.61 25.1999C48.61 23.5044 47.2355 22.1299 45.54 22.1299C43.8445 22.1299 42.47 23.5044 42.47 25.1999C42.47 26.8954 43.8445 28.2699 45.54 28.2699C47.2355 28.2699 48.61 26.8954 48.61 25.1999Z" stroke="#3770FF" stroke-width="0.896" stroke-miterlimit="10"/>
<path opacity="0.18" d="M43.09 20.8601H43.08C40.6831 20.8601 38.74 22.8032 38.74 25.2001V25.2101C38.74 27.607 40.6831 29.5501 43.08 29.5501H43.09C45.4869 29.5501 47.43 27.607 47.43 25.2101V25.2001C47.43 22.8032 45.4869 20.8601 43.09 20.8601Z" stroke="#3770FF" stroke-width="0.896" stroke-miterlimit="10"/>
<path opacity="0.26" d="M46.23 25.2051C46.23 22.104 43.7161 19.5901 40.615 19.5901C37.5139 19.5901 35 22.104 35 25.2051C35 28.3062 37.5139 30.8201 40.615 30.8201C43.7161 30.8201 46.23 28.3062 46.23 25.2051Z" stroke="#3770FF" stroke-width="0.896" stroke-miterlimit="10"/>
<path opacity="0.35" d="M45.05 25.2101C45.05 21.4048 41.9653 18.3201 38.16 18.3201C34.3548 18.3201 31.27 21.4048 31.27 25.2101C31.27 29.0153 34.3548 32.1001 38.16 32.1001C41.9653 32.1001 45.05 29.0153 45.05 25.2101Z" stroke="#3770FF" stroke-width="0.896" stroke-miterlimit="10"/>
<path opacity="0.43" d="M43.85 25.21C43.85 20.7034 40.1967 17.05 35.69 17.05C31.1834 17.05 27.53 20.7034 27.53 25.21C27.53 29.7167 31.1834 33.37 35.69 33.37C40.1967 33.37 43.85 29.7167 43.85 25.21Z" stroke="#3770FF" stroke-width="0.896" stroke-miterlimit="10"/>
<path opacity="0.51" d="M42.66 25.21C42.66 20.002 38.438 15.78 33.23 15.78C28.0219 15.78 23.8 20.002 23.8 25.21C23.8 30.4181 28.0219 34.64 33.23 34.64C38.438 34.64 42.66 30.4181 42.66 25.21Z" stroke="#3770FF" stroke-width="0.896" stroke-miterlimit="10"/>
<path opacity="0.59" d="M30.77 14.5H30.76C24.8506 14.5 20.06 19.2906 20.06 25.2V25.21C20.06 31.1194 24.8506 35.91 30.76 35.91H30.77C36.6794 35.91 41.47 31.1194 41.47 25.21V25.2C41.47 19.2906 36.6794 14.5 30.77 14.5Z" stroke="#3770FF" stroke-width="0.896" stroke-miterlimit="10"/>
<path opacity="0.67" d="M28.3 13.23H28.29C21.6792 13.23 16.32 18.5891 16.32 25.2V25.21C16.32 31.8208 21.6792 37.18 28.29 37.18H28.3C34.9109 37.18 40.27 31.8208 40.27 25.21V25.2C40.27 18.5891 34.9109 13.23 28.3 13.23Z" stroke="#3770FF" stroke-width="0.896" stroke-miterlimit="10"/>
<path opacity="0.75" d="M39.08 25.205C39.08 17.8899 33.15 11.96 25.835 11.96C18.52 11.96 12.59 17.8899 12.59 25.205C12.59 32.52 18.52 38.45 25.835 38.45C33.15 38.45 39.08 32.52 39.08 25.205Z" stroke="#3770FF" stroke-width="0.896" stroke-miterlimit="10"/>
<path opacity="0.84" d="M37.89 25.2099C37.89 17.1908 31.3892 10.6899 23.37 10.6899C15.3508 10.6899 8.84998 17.1908 8.84998 25.2099C8.84998 33.2291 15.3508 39.7299 23.37 39.7299C31.3892 39.7299 37.89 33.2291 37.89 25.2099Z" stroke="#3770FF" stroke-width="0.896" stroke-miterlimit="10"/>
<path opacity="0.92" d="M36.7 25.2099C36.7 16.4893 29.6306 9.41992 20.91 9.41992C12.1894 9.41992 5.12 16.4893 5.12 25.2099C5.12 33.9305 12.1894 40.9999 20.91 40.9999C29.6306 40.9999 36.7 33.9305 36.7 25.2099Z" stroke="#3770FF" stroke-width="0.896" stroke-miterlimit="10"/>
<path d="M35.5 25.1999C35.5 15.7779 27.862 8.13989 18.44 8.13989C9.01804 8.13989 1.38 15.7779 1.38 25.1999C1.38 34.6219 9.01804 42.2599 18.44 42.2599C27.862 42.2599 35.5 34.6219 35.5 25.1999Z" stroke="#3770FF" stroke-width="0.896" stroke-miterlimit="10"/>
<path d="M55.875 18.2227H60.123C61.9655 18.2227 63.3555 18.4896 64.293 19.0234C65.2305 19.5573 65.6992 20.4785 65.6992 21.7871C65.6992 22.334 65.6016 22.8288 65.4062 23.2715C65.2174 23.7077 64.9408 24.069 64.5762 24.3555C64.2116 24.6354 63.7624 24.8242 63.2285 24.9219V25.0195C63.7819 25.1172 64.2734 25.2897 64.7031 25.5371C65.1393 25.7845 65.4811 26.1393 65.7285 26.6016C65.9824 27.0638 66.1094 27.6628 66.1094 28.3984C66.1094 29.2708 65.901 30.013 65.4844 30.625C65.0742 31.237 64.485 31.7025 63.7168 32.0215C62.9551 32.3405 62.0501 32.5 61.002 32.5H55.875V18.2227ZM58.2188 24.1113H60.4648C61.526 24.1113 62.2617 23.9388 62.6719 23.5938C63.082 23.2487 63.2871 22.7441 63.2871 22.0801C63.2871 21.403 63.043 20.9147 62.5547 20.6152C62.0729 20.3158 61.3047 20.166 60.25 20.166H58.2188V24.1113ZM58.2188 26.0059V30.5371H60.6895C61.7832 30.5371 62.5514 30.3255 62.9941 29.9023C63.4368 29.4792 63.6582 28.9062 63.6582 28.1836C63.6582 27.7409 63.5573 27.3568 63.3555 27.0312C63.1602 26.7057 62.8379 26.4551 62.3887 26.2793C61.9395 26.097 61.334 26.0059 60.5723 26.0059H58.2188ZM74.3027 21.4844C74.485 21.4844 74.6836 21.4941 74.8984 21.5137C75.1133 21.5332 75.2988 21.5592 75.4551 21.5918L75.2402 23.7402C75.1035 23.7012 74.9342 23.6719 74.7324 23.6523C74.5371 23.6328 74.3613 23.623 74.2051 23.623C73.7949 23.623 73.4043 23.6914 73.0332 23.8281C72.6621 23.9583 72.3333 24.1602 72.0469 24.4336C71.7604 24.7005 71.5358 25.0358 71.373 25.4395C71.2103 25.8431 71.1289 26.3118 71.1289 26.8457V32.5H68.8242V21.6895H70.6211L70.9336 23.5938H71.041C71.2559 23.2096 71.5228 22.8581 71.8418 22.5391C72.1608 22.2201 72.5254 21.9661 72.9355 21.7773C73.3522 21.582 73.8079 21.4844 74.3027 21.4844ZM79.752 21.6895V32.5H77.457V21.6895H79.752ZM78.6191 17.5488C78.9707 17.5488 79.2734 17.6432 79.5273 17.832C79.7878 18.0208 79.918 18.3464 79.918 18.8086C79.918 19.2643 79.7878 19.5898 79.5273 19.7852C79.2734 19.974 78.9707 20.0684 78.6191 20.0684C78.2546 20.0684 77.9453 19.974 77.6914 19.7852C77.444 19.5898 77.3203 19.2643 77.3203 18.8086C77.3203 18.3464 77.444 18.0208 77.6914 17.832C77.9453 17.6432 78.2546 17.5488 78.6191 17.5488ZM86.6758 32.6953C85.3867 32.6953 84.3516 32.2266 83.5703 31.2891C82.7956 30.3451 82.4082 28.9551 82.4082 27.1191C82.4082 25.2637 82.8021 23.8607 83.5898 22.9102C84.3841 21.9596 85.429 21.4844 86.7246 21.4844C87.2715 21.4844 87.75 21.5592 88.1602 21.709C88.5703 21.8522 88.9219 22.0475 89.2148 22.2949C89.5143 22.5423 89.7682 22.819 89.9766 23.125H90.084C90.0514 22.9232 90.0124 22.6335 89.9668 22.2559C89.9277 21.8717 89.9082 21.5169 89.9082 21.1914V17.3047H92.2129V32.5H90.416L90.0059 31.0254H89.9082C89.7129 31.3379 89.4655 31.6211 89.166 31.875C88.873 32.1224 88.5215 32.321 88.1113 32.4707C87.7077 32.6204 87.2292 32.6953 86.6758 32.6953ZM87.3203 30.8301C88.3034 30.8301 88.9967 30.5469 89.4004 29.9805C89.804 29.4141 90.0124 28.5645 90.0254 27.4316V27.1289C90.0254 25.918 89.8301 24.9902 89.4395 24.3457C89.0488 23.6947 88.3359 23.3691 87.3008 23.3691C86.474 23.3691 85.8424 23.7044 85.4062 24.375C84.9766 25.0391 84.7617 25.9668 84.7617 27.1582C84.7617 28.3496 84.9766 29.2611 85.4062 29.8926C85.8424 30.5176 86.4805 30.8301 87.3203 30.8301ZM98.5898 37.3047C97.125 37.3047 96.002 37.041 95.2207 36.5137C94.4395 35.9863 94.0488 35.2474 94.0488 34.2969C94.0488 33.6328 94.2572 33.0697 94.6738 32.6074C95.0905 32.1517 95.6862 31.8359 96.4609 31.6602C96.168 31.5299 95.9141 31.3281 95.6992 31.0547C95.4909 30.7747 95.3867 30.4655 95.3867 30.127C95.3867 29.7233 95.5007 29.3783 95.7285 29.0918C95.9564 28.8053 96.2982 28.5286 96.7539 28.2617C96.1875 28.0208 95.7318 27.6302 95.3867 27.0898C95.0482 26.543 94.8789 25.9017 94.8789 25.166C94.8789 24.3848 95.0449 23.7207 95.377 23.1738C95.709 22.6204 96.194 22.2005 96.832 21.9141C97.4701 21.6211 98.2415 21.4746 99.1465 21.4746C99.3418 21.4746 99.5534 21.4876 99.7812 21.5137C100.016 21.5332 100.23 21.5592 100.426 21.5918C100.628 21.6178 100.781 21.6471 100.885 21.6797H104.625V22.959L102.789 23.3008C102.965 23.5482 103.105 23.8314 103.209 24.1504C103.313 24.4629 103.365 24.8047 103.365 25.1758C103.365 26.2956 102.978 27.1777 102.203 27.8223C101.435 28.4603 100.374 28.7793 99.0195 28.7793C98.694 28.7663 98.3783 28.7402 98.0723 28.7012C97.8379 28.8444 97.6589 29.0039 97.5352 29.1797C97.4115 29.349 97.3496 29.541 97.3496 29.7559C97.3496 29.9316 97.4115 30.0749 97.5352 30.1855C97.6589 30.2897 97.8411 30.3678 98.082 30.4199C98.3294 30.472 98.6289 30.498 98.9805 30.498H100.846C102.031 30.498 102.936 30.7487 103.561 31.25C104.186 31.7513 104.498 32.487 104.498 33.457C104.498 34.6875 103.99 35.6348 102.975 36.2988C101.959 36.9694 100.497 37.3047 98.5898 37.3047ZM98.6777 35.6934C99.4785 35.6934 100.152 35.6152 100.699 35.459C101.246 35.3027 101.66 35.0781 101.939 34.7852C102.219 34.4987 102.359 34.1569 102.359 33.7598C102.359 33.4082 102.271 33.138 102.096 32.9492C101.92 32.7604 101.656 32.6302 101.305 32.5586C100.953 32.487 100.517 32.4512 99.9961 32.4512H98.2969C97.8737 32.4512 97.4993 32.5163 97.1738 32.6465C96.8483 32.7832 96.5944 32.9785 96.4121 33.2324C96.2363 33.4863 96.1484 33.7923 96.1484 34.1504C96.1484 34.6452 96.3665 35.026 96.8027 35.293C97.2454 35.5599 97.8704 35.6934 98.6777 35.6934ZM99.127 27.2754C99.7975 27.2754 100.296 27.0931 100.621 26.7285C100.947 26.3574 101.109 25.8366 101.109 25.166C101.109 24.4368 100.94 23.89 100.602 23.5254C100.27 23.1608 99.7747 22.9785 99.1172 22.9785C98.4727 22.9785 97.9811 23.1641 97.6426 23.5352C97.3105 23.9062 97.1445 24.4564 97.1445 25.1855C97.1445 25.8431 97.3105 26.3574 97.6426 26.7285C97.9811 27.0931 98.4759 27.2754 99.127 27.2754ZM110.904 21.4844C111.868 21.4844 112.695 21.6829 113.385 22.0801C114.075 22.4772 114.605 23.0404 114.977 23.7695C115.348 24.4987 115.533 25.3711 115.533 26.3867V27.6172H108.316C108.342 28.6654 108.622 29.4727 109.156 30.0391C109.697 30.6055 110.452 30.8887 111.422 30.8887C112.112 30.8887 112.73 30.8236 113.277 30.6934C113.831 30.5566 114.4 30.3581 114.986 30.0977V31.9629C114.446 32.2168 113.896 32.4023 113.336 32.5195C112.776 32.6367 112.105 32.6953 111.324 32.6953C110.263 32.6953 109.329 32.4902 108.521 32.0801C107.721 31.6634 107.092 31.0449 106.637 30.2246C106.188 29.4043 105.963 28.3854 105.963 27.168C105.963 25.957 106.168 24.9284 106.578 24.082C106.988 23.2357 107.564 22.5911 108.307 22.1484C109.049 21.7057 109.915 21.4844 110.904 21.4844ZM110.904 23.2129C110.182 23.2129 109.596 23.4473 109.146 23.916C108.704 24.3848 108.443 25.0716 108.365 25.9766H113.287C113.281 25.4362 113.189 24.9577 113.014 24.541C112.844 24.1243 112.584 23.7988 112.232 23.5645C111.887 23.3301 111.445 23.2129 110.904 23.2129ZM122.506 18.2227C124.348 18.2227 125.693 18.6003 126.539 19.3555C127.385 20.1107 127.809 21.1686 127.809 22.5293C127.809 23.1478 127.711 23.737 127.516 24.2969C127.327 24.8503 127.014 25.3418 126.578 25.7715C126.142 26.1947 125.566 26.5299 124.85 26.7773C124.14 27.0247 123.264 27.1484 122.223 27.1484H120.699V32.5H118.355V18.2227H122.506ZM122.35 20.166H120.699V25.1953H121.979C122.714 25.1953 123.339 25.1107 123.854 24.9414C124.368 24.7656 124.758 24.4889 125.025 24.1113C125.292 23.7337 125.426 23.2357 125.426 22.6172C125.426 21.7904 125.175 21.1751 124.674 20.7715C124.179 20.3678 123.404 20.166 122.35 20.166ZM134.664 21.4844C136.031 21.4844 137.063 21.7871 137.76 22.3926C138.463 22.998 138.814 23.9421 138.814 25.2246V32.5H137.184L136.744 30.9668H136.666C136.36 31.3574 136.044 31.6797 135.719 31.9336C135.393 32.1875 135.016 32.3763 134.586 32.5C134.163 32.6302 133.645 32.6953 133.033 32.6953C132.389 32.6953 131.812 32.5781 131.305 32.3438C130.797 32.1029 130.396 31.7383 130.104 31.25C129.811 30.7617 129.664 30.1432 129.664 29.3945C129.664 28.2812 130.077 27.4447 130.904 26.8848C131.738 26.3249 132.994 26.0156 134.674 25.957L136.549 25.8887V25.3223C136.549 24.5736 136.373 24.0397 136.021 23.7207C135.676 23.4017 135.188 23.2422 134.557 23.2422C134.016 23.2422 133.492 23.3203 132.984 23.4766C132.477 23.6328 131.982 23.8249 131.5 24.0527L130.758 22.4316C131.285 22.1517 131.884 21.9238 132.555 21.748C133.232 21.5723 133.935 21.4844 134.664 21.4844ZM136.539 27.334L135.143 27.3828C133.997 27.4219 133.193 27.6172 132.73 27.9688C132.268 28.3203 132.037 28.8021 132.037 29.4141C132.037 29.9479 132.197 30.3385 132.516 30.5859C132.835 30.8268 133.255 30.9473 133.775 30.9473C134.57 30.9473 135.227 30.7227 135.748 30.2734C136.275 29.8177 136.539 29.1504 136.539 28.2715V27.334ZM140.396 21.6895H142.896L145.113 27.8613C145.211 28.1413 145.299 28.418 145.377 28.6914C145.462 28.9583 145.533 29.222 145.592 29.4824C145.657 29.7428 145.709 30.0033 145.748 30.2637H145.807C145.872 29.9251 145.963 29.5475 146.08 29.1309C146.204 28.7077 146.34 28.2845 146.49 27.8613L148.619 21.6895H151.09L146.451 33.9844C146.184 34.6875 145.855 35.2865 145.465 35.7812C145.081 36.2826 144.625 36.6602 144.098 36.9141C143.57 37.1745 142.968 37.3047 142.291 37.3047C141.965 37.3047 141.682 37.2852 141.441 37.2461C141.201 37.2135 140.995 37.1777 140.826 37.1387V35.3027C140.963 35.3353 141.135 35.3646 141.344 35.3906C141.552 35.4167 141.767 35.4297 141.988 35.4297C142.398 35.4297 142.753 35.3483 143.053 35.1855C143.352 35.0228 143.606 34.7917 143.814 34.4922C144.023 34.1992 144.195 33.8639 144.332 33.4863L144.713 32.4707L140.396 21.6895Z" fill="#2D3C52"/>
</svg>
